/* XPM */
static char * enemy1_xpm[] = {
"576 16 6 1",
" 	c None",
".	c #00FFFF",
"+	c #008080",
"@	c #0000FF",
"#	c #000080",
"$	c #000000",
"                                                                                                                                                                                                                                                                                                                                                                                                                                                                                                                                   .++                    .++                                   ",
"                                                                                                                                                                                                                                                                  .+@       +##       +##         +##       .+@       .+@         .+@       +##       +##         +##       .+@       .+@        +##       .@@         +##       .@@       +##         .++       +##       .@@         +##       .@@       +##         .++         .+@                    .+@               +@#  ++#            ",
"                                                                                                                                                                                                                                                                  .@@#      +##       +##         +###      .@@       .@@         .@@#      +##       +##         +###      .@@       .@@        +##      ++@@         +##       .@@      +###         .@@       +##      ++@@         +##       .@@      +###         .@@         .@@.++@@          .+++@.@@               .@@  .@@            ",
"        +++##          .++@@          +++##             .++@@           +++##          .++@@          +++##             .++@@      ++++#             .++@@            ++++#         .++@@          ++++#             .++@@            ++++#         .++@@         ++@@#.++@.@@@       .@@         ++@@ .++@++@@       .@@         ++@@#.++@.@@@       .@@         ++@@ .++@++@@       .@@        .@@@.++@++@@#         .@@       .@@#.++@ .@@#         .@@       .@@@.++@++@@#         .@@       .@@#.++@ .@@#         .@@         .@@++@@#          ++@@++@@      ++# +++# .@@  .@@ +++# ++#   ",
"        .@@@@          .@@@@          .@@@@             .@@@@           .@@@@          .@@@@          .@@@@             .@@@@      .@@@@             .@@@@            .@@@@         .@@@@          .@@@@             .@@@@            .@@@@         .@@@@          ++@@.@@++@#        .@++++       ++@@++@+@@#        .@@++@       ++@@.@@++@#        .@++++       ++@@++@+@@#        .@@++@      ++@+@@+.@@#       .++@@@        ++@+@@+.@@#       .+@.@@        ++@+@@+.@@#       .++@@@        ++@+@@+.@@#       .+@.@@         +++@+@@ ++      ++ .@@+++#     .@@# .@@@++@#  ++@#.@@@ ++@@  ",
"       ++@@##      +++.@@@#          ++@@##            .@@@#           ++@@##      +++.@@@#          ++@@##            .@@@#       +#+@@#             +@@@@#++        +#+@@#         ++@@@         +#+@@#             +@@@@#++        +#+@@#         ++@@@          ++@@@+@@#         .@.@@@        ++@@@@@@#         .@@@@@        ++@@@+@@#         .@.@@@        ++@@@@@@#         .@@@@@       ++@+@@@@#        +@@+@@         ++@+@@@@#        +@@.@@         ++@+@@@@#        +@@+@@         ++@+@@@@#        +@@.@@           ++@@@+++      .+.@@@@+      .@@@+++@@+@@#    ++@@@@#+++@@@ ",
"   +++#+@@#       .@@@@@@@@@++@  ++++@@@@@## ++@    +++@@@@@@      +++#+@@#       .@@@@@@@@@++@  ++++@@@@@## ++@    +++@@@@@@        ++@@++++     .+++@@@@@@@@@  .++ +++@@@@@@##    .@@@@@@@#        ++@@++++     .+++@@@@@@@@@  .++ +++@@@@@@##    .@@@@@@@#         ++@@@@          ..+@            ++@@@@          .@@+            ++@@@@          ..+@            ++@@@@          .@@+          .@@@@#            .++@          .@@@@#            .@@@          .@@@@#            .++@          .@@@@#            .@@@            .@@@+@@      .@@@@@@        #@@@@@@@@@        .@@@@@@@@#  ",
"+++@@@@@@@+ ++@@  .@+@@@@@+@@@#  .@@@#+@@@@@+@@@    .@@+@@@+@@+#+++@@@@@@@+ ++@@  .@+@@@@@+@@@#  .@@@#+@@@@@+@@@    .@@+@@@+@@+#.+++ .@@@@@@@++#  +@@@+@@@@@+@@  .@@+@@@@@@#@@@@ +++@@@@@+@@@   .+++ .@@@@@@@++#  +@@@+@@@@@+@@  .@@+@@@@@@#@@@@ +++@@@@@+@@@         .@@@#           .@@+++          .@@@#           .@@@++          .@@@#           .@@+++          .@@@#           .@@@++         ++@@@          +++@@@           ++@@@          ++.@@@           ++@@@          +++@@@           ++@@@          ++.@@@           .@@@@@.#      ++.@@@@@          #+@@@@          .@@@@#     ",
".@@##+@@@@@+@@@#   ##+@@@@+##    .@@   .@@@@@@@     .@@++@@++@@@.@@##+@@@@@+@@@#   ##+@@@@+##    .@@   .@@@@@@@     .@@++@@++@@@+@@@+@@@@@@##+@@    ##++@@@@##    .@@++@@@   .@@ .@@@+.@++@@@   +@@@+@@@@@@##+@@    ##++@@@@##    .@@++@@@   .@@ .@@@+.@++@@@         .@@@#           ++@@@@@         .@@@#           ++@@@@@         .@@@#           ++@@@@@         .@@@#           ++@@@@@        ++@@@         .@@@@@@           ++@@@         .@@.@@@#          ++@@@         .@@@@@@           ++@@@         .@@.@@@#        .+.@@@@@          .@@@@@@@         .@@@#          ++@@@      ",
".@@  .@@@+@@@#       .@@@@       ###   ++@@@        +++@@@@$+## .@@  .@@@+@@@#       .@@@@       ###   ++@@@        +++@@@@$+##   #@@@@+@@@  .@@       .@@@@         .@@@#   +##  +## .@@@@@#     #@@@@+@@@  .@@       .@@@@         .@@@#   +##  +## .@@@@@#       ++@@+@@@@          .@.###       ++@@@@@@@          .@@###       ++@@+@@@@          .@.###       ++@@@@@@@          .@@###      .+@@+@@@#       +##.@@@         .+@@+@@@#       +##.@@@#        .+@@+@@@#       +##.@@@         .+@@+@@@#       +##.@@@#        .@@@@@@@          .@@@@@@@      +++@@@@            .@@@@##   ",
"    .@@@++##          .@@@+             .@@@@          .@@@+        .@@@++##          .@@@+             .@@@@          .@@@+        ++++@@@@         ++@@@@         .@@@@            .@@@@          ++++@@@@         ++@@@@         .@@@@            .@@@@          .@@@ ++@@         ++@@          .@@@ ++@@         ++@@          .@@@ ++@@         ++@@          .@@@ ++@@         ++@@         .@@# .@@@          .@@@         .@@# .@@@          .@@@         .@@# .@@@          .@@@         .@@# .@@@          .@@@         .@@.@@@@          .@@@.@@@    ++@@@@@@@@          .@@@++@@@# ",
"   .@@@@@@@@        +++@@@@@      .++@ +@@@@@#       +++@@@@@      .@@@@@@@@        +++@@@@@      .++@ +@@@@@#       +++@@@@@       .@@@@@@@@        .@@@@@++      ++@@@@+ .++@     .@@@@@#++       .@@@@@@@@        .@@@@@++      ++@@@@+ .++@     .@@@@@#++      ++@@  .@@@         .@@@         ++@@  .@@@         .@@@         ++@@  .@@@         .@@@         ++@@  .@@@         .@@@         .@@@  .@@#         .@@@         .@@@  .@@#         .@@@         .@@@  .@@#         .@@@         .@@@  .@@#         .@@@         .@@ ++@@          .@@# .@@    .@@#   .@@          .@@   ++@@ ",
"  .@@@  ++@@      .@@@@@+@@@@     +@@@@@@@+@@@     .@@@@@+@@@     .@@@  ++@@      .@@@@@+@@@@     +@@@@@@@+@@@     .@@@@@+@@@       .@@#  .@@@      .@@@+@@@@@@    .@@@+@@+@@@#     .@@@@@@@@@      .@@#  .@@@      .@@@+@@@@@@    .@@@+@@+@@@#     .@@@@@@@@@    ++@@#  .@@          .@+@@       ++@@#  +@@          .+.@@       ++@@#  .@@          .@+@@       ++@@#  +@@          .+.@@         +@@  ++@@#       .@.+@          +@@  ++@@#       .@.+@          +@@  ++@@#       .@.+@          +@@  ++@@#       .@.+@         ###  .@@#        ++@@  +##    ++@@#  .@@          .@@  ++@@# ",
" ++@@   .@@#      +@####+#+@@@      #@@@@  .@@#    +@####.@@@    ++@@   .@@#      +@####+#+@@@      #@@@@  .@@#    +@####.@@@       ++@@   .@@#    .@@@#+####@@   ++@@  @@@@#       .@@@####@@      ++@@   .@@#    .@@@#+####@@   ++@@  @@@@#       .@@@####@@    .@@#                  .@@       .@@#                  .@@       .@@#                  .@@       .@@#                  .@@               ++@@       .@@                  ++@@       .@@                  ++@@       .@@                  ++@@       .@@                ++@@        .@@#          +@@#  .@@          .@@  ++@@  ",
"++@@#   +##               +@@#             ++@@#         .@@@   ++@@#   +##               +@@#             ++@@#         .@@@        ###   ++@@#   +@@#          ++@@#              .@@@             ###   ++@@#   +@@#          ++@@#              .@@@                                                                                                                                                                                                                                                                                 .@@#      ++@@                 .@@          .@@        ",
".@@#                                        ++@@         ++@@@  .@@#                                        ++@@         ++@@@              ++@@                 .@@#              .@@@#                    ++@@                 .@@#              .@@@#                                                                                                                                                                                                                                                                                 +@@@      +@@#                 +@#          ++#        "};
