/* XPM */
static const char * enemy1_xpm[] = {
"320 16 6 1",
" 	c None",
".	c #00FFFF",
"+	c #008080",
"@	c #0000FF",
"#	c #000080",
"$	c #000000",
"                                                                                                                                                                                                                                                                   .++                    .++                                   ",
"                                                                                                                                  .+@       +##       +##         +##       .+@       .+@        +##       .@@         +##       .@@       +##         .++         .+@                    .+@               +@#  ++#            ",
"                                                                                                                                  .@@#      +##       +##         +###      .@@       .@@        +##      ++@@         +##       .@@      +###         .@@         .@@.++@@          .+++@.@@               .@@  .@@            ",
"        +++##          .++@@          +++##             .++@@      ++++#             .++@@            ++++#         .++@@         ++@@#.++@.@@@       .@@         ++@@ .++@++@@       .@@        .@@@.++@++@@#         .@@       .@@#.++@ .@@#         .@@         .@@++@@#          ++@@++@@      ++# +++# .@@  .@@ +++# ++#   ",
"        .@@@@          .@@@@          .@@@@             .@@@@      .@@@@             .@@@@            .@@@@         .@@@@          ++@@.@@++@#        .@++++       ++@@++@+@@#        .@@++@      ++@+@@+.@@#       .++@@@        ++@+@@+.@@#       .+@.@@         +++@+@@ ++      ++ .@@+++#     .@@# .@@@++@#  ++@#.@@@ ++@@  ",
"       ++@@##      +++.@@@#          ++@@##            .@@@#       +#+@@#             +@@@@#++        +#+@@#         ++@@@          ++@@@+@@#         .@.@@@        ++@@@@@@#         .@@@@@       ++@+@@@@#        +@@+@@         ++@+@@@@#        +@@.@@           ++@@@+++      .+.@@@@+      .@@@+++@@+@@#    ++@@@@#+++@@@ ",
"   +++#+@@#       .@@@@@@@@@++@  ++++@@@@@## ++@    +++@@@@@@        ++@@++++     .+++@@@@@@@@@  .++ +++@@@@@@##    .@@@@@@@#         ++@@@@          ..+@            ++@@@@          .@@+          .@@@@#            .++@          .@@@@#            .@@@            .@@@+@@      .@@@@@@        #@@@@@@@@@        .@@@@@@@@#  ",
"+++@@@@@@@+ ++@@  .@+@@@@@+@@@#  .@@@#+@@@@@+@@@    .@@+@@@+@@+#.+++ .@@@@@@@++#  +@@@+@@@@@+@@  .@@+@@@@@@#@@@@ +++@@@@@+@@@         .@@@#           .@@+++          .@@@#           .@@@++         ++@@@          +++@@@           ++@@@          ++.@@@           .@@@@@.#      ++.@@@@@          #+@@@@          .@@@@#     ",
".@@##+@@@@@+@@@#   ##+@@@@+##    .@@   .@@@@@@@     .@@++@@++@@@+@@@+@@@@@@##+@@    ##++@@@@##    .@@++@@@   .@@ .@@@+.@++@@@         .@@@#           ++@@@@@         .@@@#           ++@@@@@        ++@@@         .@@@@@@           ++@@@         .@@.@@@#        .+.@@@@@          .@@@@@@@         .@@@#          ++@@@      ",
".@@  .@@@+@@@#       .@@@@       ###   ++@@@        +++@@@@$+##   #@@@@+@@@  .@@       .@@@@         .@@@#   +##  +## .@@@@@#       ++@@+@@@@          .@.###       ++@@@@@@@          .@@###      .+@@+@@@#       +##.@@@         .+@@+@@@#       +##.@@@#        .@@@@@@@          .@@@@@@@      +++@@@@            .@@@@##   ",
"    .@@@++##          .@@@+             .@@@@          .@@@+        ++++@@@@         ++@@@@         .@@@@            .@@@@          .@@@ ++@@         ++@@          .@@@ ++@@         ++@@         .@@# .@@@          .@@@         .@@# .@@@          .@@@         .@@.@@@@          .@@@.@@@    ++@@@@@@@@          .@@@++@@@# ",
"   .@@@@@@@@        +++@@@@@      .++@ +@@@@@#       +++@@@@@       .@@@@@@@@        .@@@@@++      ++@@@@+ .++@     .@@@@@#++      ++@@  .@@@         .@@@         ++@@  .@@@         .@@@         .@@@  .@@#         .@@@         .@@@  .@@#         .@@@         .@@ ++@@          .@@# .@@    .@@#   .@@          .@@   ++@@ ",
"  .@@@  ++@@      .@@@@@+@@@@     +@@@@@@@+@@@     .@@@@@+@@@       .@@#  .@@@      .@@@+@@@@@@    .@@@+@@+@@@#     .@@@@@@@@@    ++@@#  .@@          .@+@@       ++@@#  +@@          .+.@@         +@@  ++@@#       .@.+@          +@@  ++@@#       .@.+@         ###  .@@#        ++@@  +##    ++@@#  .@@          .@@  ++@@# ",
" ++@@   .@@#      +@####+#+@@@      #@@@@  .@@#    +@####.@@@       ++@@   .@@#    .@@@#+####@@   ++@@  @@@@#       .@@@####@@    .@@#                  .@@       .@@#                  .@@               ++@@       .@@                  ++@@       .@@                ++@@        .@@#          +@@#  .@@          .@@  ++@@  ",
"++@@#   +##               +@@#             ++@@#         .@@@        ###   ++@@#   +@@#          ++@@#              .@@@                                                                                                                                                 .@@#      ++@@                 .@@          .@@        ",
".@@#                                        ++@@         ++@@@              ++@@                 .@@#              .@@@#                                                                                                                                                 +@@@      +@@#                 +@#          ++#        "};
