/* XPM */
static const char * enemy2_xpm[] = {
"320 16 7 1",
" 	c None",
".	c #FFFF00",
"+	c #808080",
"@	c #0000FF",
"#	c #808000",
"$	c #000080",
"%	c #000000",
"                                                                                                                                                                                                                                                                   .++                    .++                                   ",
"                                                                                                                                  .+@       #$$       #$$         #$$       .+@       .+@        #$$       .@@         #$$       .@@       #$$         .++         .+@                    .+@               #@$  #+$            ",
"                                                                                                                                  .@@$      #$$       #$$         #$$$      .@@       .@@        #$$      #+@@         #$$       .@@      #$$$         .@@         .@@.++@@          .+++@.@@               .@@  .@@            ",
"        ###$$          .++@@          ###$$             .++@@      ####$             .++@@            ####$         .++@@         #+@@$.++@.@@@       .@@         #+@@ .++@#+@@       .@@        .@@@.++@#+@@$         .@@       .@@$.++@ .@@$         .@@         .@@++@@$          #+@@++@@      ##$ ###$ .@@  .@@ ###$ ##$   ",
"        .@@@@          .@@@@          .@@@@             .@@@@      .@@@@             .@@@@            .@@@@         .@@@@          #+@@.@@++@$        .@++++       #+@@++@+@@$        .@@++@      #+@+@@+.@@$       .++@@@        #+@+@@+.@@$       .+@.@@         #++@+@@ ##      ## .@@+++$     .@@$ .@@@#+@$  #+@$.@@@ #+@@  ",
"       #+@@$$      ###.@@@$          #+@@$$            .@@@$       #$+@@$             #@@@@$##        #$+@@$         #+@@@          #+@@@+@@$         .@.@@@        #+@@@@@@$         .@@@@@       #+@+@@@@$        +@@+@@         #+@+@@@@$        +@@.@@           #+@@@+++      .+.@@@@#      .@@@###@@+@@$    #+@@@@$##+@@@ ",
"   ###$+@@$       .@@@@@@@@@#+@  ##++@@@@@$$ #+@    #++@@@@@@        #+@@####     .+#+@@@@@@@@@  .+# ##+@@@@@@$$    .@@@@@@@$         #+@@@@          ..+@            #+@@@@          .@@+          .@@@@$            .++@          .@@@@$            .@@@            .@@@+@@      .@@@@@@        $@@@@@@@@@        .@@@@@@@@$  ",
"#++@@@@@@@+ #+@@  .@+@@@@@+@@@$  .@@@$+@@@@@+@@@    .@@+@@@+@@#$.++# .@@@@@@@++$  #@@@+@@@@@+@@  .@@+@@@@@@$@@@@ ##+@@@@@+@@@         .@@@$           .@@+##          .@@@$           .@@@##         #+@@@          ##+@@@           #+@@@          ##.@@@           .@@@@@.$      #+.@@@@@          $+@@@@          .@@@@$     ",
".@@$$+@@@@@+@@@$   $$+@@@@#$$    .@@   .@@@@@@@     .@@++@@#+@@@#@@@+@@@@@@$$+@@    $$#+@@@@$$    .@@++@@@   .@@ .@@@#.@++@@@         .@@@$           #+@@@@@         .@@@$           #+@@@@@        #+@@@         .@@@@@@           #+@@@         .@@.@@@$        .+.@@@@@          .@@@@@@@         .@@@$          #+@@@      ",
".@@  .@@@+@@@$       .@@@@       $$$   #+@@@        #++@@@@%#$$   $@@@@+@@@  .@@       .@@@@         .@@@$   #$$  #$$%.@@@@@$       #+@@+@@@@          .@.$$$       #+@@@@@@@          .@@$$$      .+@@+@@@$       #$$.@@@         .+@@+@@@$       #$$.@@@$        .@@@@@@@          .@@@@@@@      ##+@@@@            .@@@@$$   ",
"    .@@@+#$$          .@@@+             .@@@@          .@@@+        ###+@@@@         #+@@@@         .@@@@            .@@@@          .@@@ #+@@         #+@@          .@@@ #+@@         #+@@         .@@$ .@@@          .@@@         .@@$ .@@@          .@@@         .@@.@@@@          .@@@.@@@    #+@@@@@@@@          .@@@++@@@$ ",
"   .@@@@@@@@        ##+@@@@@      .++@ #@@@@@$       ##+@@@@@       .@@@@@@@@        .@@@@@##      #+@@@@# .++@     .@@@@@$##      #+@@  .@@@         .@@@         #+@@  .@@@         .@@@         .@@@  .@@$         .@@@         .@@@  .@@$         .@@@         .@@ #+@@          .@@$ .@@    .@@$   .@@          .@@   #+@@ ",
"  .@@@  #+@@      .@@@@@+@@@@     #@@@@@@@+@@@     .@@@@@+@@@       .@@$  .@@@      .@@@+@@@@@@    .@@@+@@+@@@$     .@@@@@@@@@    #+@@$  .@@          .@+@@       #+@@$  +@@          .+.@@         +@@  #+@@$       .@.+@          +@@  #+@@$       .@.+@         $$$  .@@$        #+@@  #$$    #+@@$  .@@          .@@  #+@@$ ",
" #+@@   .@@$      +@$$$$#$+@@@      $@@@@  .@@$    +@$$$$.@@@       #+@@   .@@$    .@@@$#$$$$@@   #+@@  @@@@$       .@@@$$$$@@    .@@$                  .@@       .@@$                  .@@               #+@@       .@@                  #+@@       .@@                #+@@        .@@$          +@@$  .@@          .@@  #+@@  ",
"#+@@$   #$$               #@@$             #+@@$         .@@@        $$$   #+@@$   #@@$          #+@@$              .@@@                                                                                                                                                 .@@$      #+@@                 .@@          .@@        ",
".@@$                                        #+@@         #+@@@              #+@@                 .@@$              .@@@$                                                                                                                                                 #@@@      +@@$                 #@$          #+$        "};
