/* XPM */
static const char * hero_xpm[] = {
"320 16 7 1",
" 	c None",
".	c #00FF00",
"+	c #00C000",
"@	c #008000",
"#	c #004000",
"$	c #000000",
"%	c #303030",
"                                                                                                                                                                                                                                                                   .++                    .++                                   ",
"                                                                                                                                  .+@       @##       @##         @##       .+@       .+@        @##       .@@         @##       .@@       @##         .++         .+@                    .+@               @@#  @+#            ",
"                                                                                                                                  .@@#      @##       @##         @###      .@@       .@@        @##      @+@@         @##       .@@      @###         .@@         .@@.++@@          .+++@.@@               .@@  .@@            ",
"        @@@##          .++@@          @@@##             .++@@      @@@@#             .++@@            @@@@#         .++@@         @+@@#.++@.@@@       .@@         @+@@ .++@@+@@       .@@        .@@@.++@@+@@#         .@@       .@@#.++@ .@@#         .@@         .@@++@@#          @+@@++@@      @@# @@@# .@@  .@@ @@@# @@#   ",
"        .@@@@          .@@@@          .@@@@             .@@@@      .@@@@             .@@@@            .@@@@         .@@@@          @+@@.@@++@#        .@++++       @+@@++@+@@#        .@@++@      @+@+@@+.@@#       .++@@@        @+@+@@+.@@#       .+@.@@         @++@+@@ @@      @@ .@@+++#     .@@# .@@@@+@#  @+@#.@@@ @+@@  ",
"       @+@@##      @@@.@@@#          @+@@##            .@@@#       @#+@@#             @@@@@#@@        @#+@@#         @+@@@          @+@@@+@@#         .@.@@@        @+@@@@@@#         .@@@@@       @+@+@@@@#        +@@+@@         @+@+@@@@#        +@@.@@           @+@@@+++      .+.@@@@@      .@@@@@@@@+@@#    @+@@@@#@@+@@@ ",
"   @@@#+@@#       .@@@@@@@@@@+@  @@++@@@@@## @+@    @++@@@@@@        @+@@@@@@     .+@+@@@@@@@@@  .+@ @@+@@@@@@##    .@@@@@@@#         @+@@@@          ..+@            @+@@@@          .@@+          .@@@@#            .++@          .@@@@#            .@@@            .@@@+@@      .@@@@@@        #@@@@@@@@@        .@@@@@@@@#  ",
"@++@@@@@@@+ @+@@  .@+@@@@@+@@@#  .@@@#+@@@@@+@@@    .@@+@@@+@@@#.++@ .@@@@@@@++#  @@@@+@@@@@+@@  .@@+@@@@@@#@@@@ @@+@@@@@+@@@         .@@@#           .@@+@@          .@@@#           .@@@@@         @+@@@          @++@@@           @+@@@          @..@@@           .@@@@@.#      @+.@@@@@          #+@@@@          .@@@@#     ",
".@@##+@@@@@+@@@#   ##+@@@@@##    .@@   .@@@@@@@     .@@++@@@+@@@@@@@+@@@@@@##+@@    ##@+@@@@##    .@@++@@@   .@@ .@@@@.@++@@@         .@@@#           @+@@@@@         .@@@#           @+@@@@@        @+@@@         .@@@+@@           @+@@@         .@@.@@@#        .+.@@@@@          .@@@@@@@         .@@@#          @+@@@      ",
".@@  .@@@+@@@#       .@@@@       ###   @+@@@        @++@@@@$@##   #@@@@+@@@  .@@       .@@@@         .@@@#   @##  @##$.@@@@@#       @+@@+@@@@          .@.###       @+@@@@@@@          .@@###      .+@@+@@@#       @##.@@@         .+@@+@@@#       @# .@@@#        .@@@@@@@          .@@@@@@@      @@+@@@@            .@@@@##   ",
"    .@@@+@##          .@@@+             .@@@@          .@@@+        @@@+@@@@         @+@@@@         .@@@@            .@@@@          .@@@ @+@@         @+@@          .@@@ @+@@         @+@@         .@@% .@@@          .@@@         .@@% .@@@          .@@@         .@@.@@@@          .@@@.@@@    @+@@@@@@@@          .@@@++@@@# ",
"   .@@@@@@@@        @@+@@@@@      .++@ @@@@@@#       @@+@@@@@       .@@@@@@@@        .@@@@@@@      @+@@@@@ .++@     .@@@@@#@@      @+@@  .@@@         .@@@         @+@@  .@@@         .@@@         .@@@  .@@#         .@@@         .@@@  .@@#         .@@@         .@@ @+@@          .@@# .@@    .@@#   .@@          .@@   @+@@ ",
"  .@@@  @+@@      .@@@@@+@@@@     @@@@@@@@+@@@     .@@@@@+@@@       .@@#  .@@@      .@@@+@@@@@@    .@@@+@@+@@@#     .@@@@@@@@@    @+@@#  .@@          .@+@@       @+@@#  +@@          .+.@@         +@@  @+@@#       .@.+@          +@@  @+@@#       .@.+@         ###  .@@#        @+@@  @##    @+@@#  .@@          .@@  @+@@# ",
" @+@@   .@@#      +@#%##@#+@@@      #@@@@  .@@#    +@#%##.@@@       @+@@   .@@#    .@@@#@####@@   @+@@  @@@@#       .@@@####@@    .@@#                  .@@       .@@#                  .@@               @+@@       .@@                  @+@@       .@@                @+@@        .@@#          +@@#  .@@          .@@  @+@@  ",
"@+@@#   @##               @@@#             @+@@#         .@@@        ###   @+@@#   @@@%          @+@@#              .@@@                                                                                                                                                 .@@#      @+@@                 .@@          .@@        ",
".@@#                                        @+@@         @+@@@              @+@@                 .@@#              .@@@#                                                                                                                                                 @@@@      +@@#                 @@#          @+#        "};
