<?xml version="1.0" encoding="UTF-8" standalone="no"?>
<!-- Created with Inkscape (http://www.inkscape.org/) -->
<svg
   xmlns:dc="http://purl.org/dc/elements/1.1/"
   xmlns:cc="http://web.resource.org/cc/"
   xmlns:rdf="http://www.w3.org/1999/02/22-rdf-syntax-ns#"
   xmlns:svg="http://www.w3.org/2000/svg"
   xmlns="http://www.w3.org/2000/svg"
   xmlns:xlink="http://www.w3.org/1999/xlink"
   xmlns:sodipodi="http://sodipodi.sourceforge.net/DTD/sodipodi-0.dtd"
   xmlns:inkscape="http://www.inkscape.org/namespaces/inkscape"
   width="864"
   height="96"
   id="svg2"
   sodipodi:version="0.32"
   inkscape:version="0.45.1"
   sodipodi:docname="set.svg"
   sodipodi:docbase="/home/mikelima/kde/src/KDE/kdegames/kgoldrunner/themes/default"
   version="1.0"
   inkscape:output_extension="org.inkscape.output.svg.inkscape">
  <defs
     id="defs4">
    <radialGradient
       inkscape:collect="always"
       xlink:href="#linearGradient2173"
       id="radialGradient5200"
       gradientUnits="userSpaceOnUse"
       gradientTransform="matrix(0.4148634,-1.3895831,1.2882687,0.4429607,-357.57217,63.053594)"
       cx="-56.883621"
       cy="249.94176"
       fx="-56.883621"
       fy="249.94176"
       r="5.1249995" />
    <radialGradient
       inkscape:collect="always"
       xlink:href="#linearGradient2173"
       id="radialGradient10077"
       gradientUnits="userSpaceOnUse"
       gradientTransform="matrix(-0.3321452,1.8190572,-1.6608061,-0.3032511,1848.1224,-1090.2478)"
       cx="912.78845"
       cy="418.65125"
       fx="912.78845"
       fy="418.65125"
       r="32" />
    <linearGradient
       id="linearGradient4010">
      <stop
         id="stop4012"
         offset="0"
         style="stop-color:#06004f;stop-opacity:1;" />
      <stop
         style="stop-color:#484cb4;stop-opacity:1;"
         offset="0.5"
         id="stop4014" />
      <stop
         id="stop4016"
         offset="1"
         style="stop-color:#6ef1fe;stop-opacity:1;" />
    </linearGradient>
    <linearGradient
       id="linearGradient4002">
      <stop
         id="stop4004"
         offset="0"
         style="stop-color:#e0e0e0;stop-opacity:1;" />
      <stop
         style="stop-color:#b448b3;stop-opacity:1;"
         offset="0.5"
         id="stop4006" />
      <stop
         id="stop4008"
         offset="1"
         style="stop-color:#716efe;stop-opacity:1;" />
    </linearGradient>
    <linearGradient
       id="linearGradient3993">
      <stop
         id="stop3995"
         offset="0"
         style="stop-color:#802de3;stop-opacity:1;" />
      <stop
         id="stop3997"
         offset="1"
         style="stop-color:#00fff8;stop-opacity:1;" />
    </linearGradient>
    <linearGradient
       id="linearGradient3659">
      <stop
         style="stop-color:#00053a;stop-opacity:1;"
         offset="0"
         id="stop3659" />
      <stop
         id="stop7270"
         offset="0.5"
         style="stop-color:#b448b3;stop-opacity:1;" />
      <stop
         style="stop-color:#a3a1ff;stop-opacity:1;"
         offset="1"
         id="stop3669" />
    </linearGradient>
    <linearGradient
       id="linearGradient3651">
      <stop
         style="stop-color:#918a6f;stop-opacity:1;"
         offset="0"
         id="stop3653" />
      <stop
         style="stop-color:#918a6f;stop-opacity:0;"
         offset="1"
         id="stop3655" />
    </linearGradient>
    <linearGradient
       inkscape:collect="always"
       xlink:href="#linearGradient2783"
       id="linearGradient2249"
       gradientUnits="userSpaceOnUse"
       gradientTransform="matrix(0.5,0,0,1,224.4394,-158.5296)"
       x1="816"
       y1="600.09448"
       x2="848"
       y2="600.09448" />
    <linearGradient
       inkscape:collect="always"
       xlink:href="#linearGradient2783"
       id="linearGradient2247"
       gradientUnits="userSpaceOnUse"
       gradientTransform="matrix(0.5,0,0,1,160.4394,-158.5296)"
       x1="816"
       y1="600.09448"
       x2="848"
       y2="600.09448" />
    <linearGradient
       inkscape:collect="always"
       xlink:href="#linearGradient2783"
       id="linearGradient2267"
       gradientUnits="userSpaceOnUse"
       gradientTransform="matrix(0,0.3866024,-0.375,0,1089.035,322.58575)"
       x1="847.99994"
       y1="608.46954"
       x2="815.99994"
       y2="608.30847" />
    <linearGradient
       inkscape:collect="always"
       xlink:href="#linearGradient2783"
       id="linearGradient13196"
       gradientUnits="userSpaceOnUse"
       gradientTransform="matrix(0,0.3866024,-0.375,0,1089.035,290.42044)"
       x1="847.99994"
       y1="604.28204"
       x2="815.99994"
       y2="604.28204" />
    <linearGradient
       inkscape:collect="always"
       xlink:href="#linearGradient2783"
       id="linearGradient2273"
       gradientUnits="userSpaceOnUse"
       gradientTransform="matrix(0,0.3866024,-0.375,0,1089.035,258.25512)"
       x1="847.99994"
       y1="588.33716"
       x2="815.99994"
       y2="588.33716" />
    <linearGradient
       inkscape:collect="always"
       xlink:href="#linearGradient2783"
       id="linearGradient2276"
       gradientUnits="userSpaceOnUse"
       gradientTransform="matrix(0,0.3866024,-0.375,0,1089.035,226.0898)"
       x1="847.99994"
       y1="586.24335"
       x2="815.99994"
       y2="586.24335" />
    <linearGradient
       inkscape:collect="always"
       xlink:href="#linearGradient2783"
       id="linearGradient2383"
       gradientUnits="userSpaceOnUse"
       gradientTransform="matrix(0.500000,0.000000,0.000000,1.000000,480.0000,1.186828e-13)"
       x1="816"
       y1="600.09448"
       x2="848"
       y2="600.09448" />
    <linearGradient
       inkscape:collect="always"
       xlink:href="#linearGradient2783"
       id="linearGradient2282"
       gradientUnits="userSpaceOnUse"
       gradientTransform="matrix(0.500000,0.000000,0.000000,1.000000,416.0000,1.186828e-13)"
       x1="816"
       y1="600.09448"
       x2="848"
       y2="600.09448" />
    <linearGradient
       id="linearGradient2173">
      <stop
         style="stop-color:#d38200;stop-opacity:1;"
         offset="0"
         id="stop2175" />
      <stop
         style="stop-color:#ffff00;stop-opacity:1.0000000;"
         offset="1.0000000"
         id="stop2177" />
    </linearGradient>
    <linearGradient
       id="linearGradient2783">
      <stop
         style="stop-color:#323232;stop-opacity:1;"
         offset="0"
         id="stop2785" />
      <stop
         style="stop-color:#ffffff;stop-opacity:1;"
         offset="0.66000003"
         id="stop2791" />
      <stop
         style="stop-color:#505050;stop-opacity:1;"
         offset="1"
         id="stop2795" />
    </linearGradient>
    <linearGradient
       inkscape:collect="always"
       xlink:href="#linearGradient2783"
       id="linearGradient2903"
       gradientUnits="userSpaceOnUse"
       gradientTransform="matrix(1,0,0,0.7512956,-48.00003,-248.21786)"
       x1="659.5979"
       y1="392.09448"
       x2="659.5979"
       y2="376.09448" />
    <linearGradient
       inkscape:collect="always"
       xlink:href="#linearGradient3659"
       id="linearGradient3657"
       x1="-245.55905"
       y1="-101.98989"
       x2="-245.55905"
       y2="-315.50995"
       gradientUnits="userSpaceOnUse" />
    <linearGradient
       inkscape:collect="always"
       xlink:href="#linearGradient4002"
       id="linearGradient3983"
       gradientUnits="userSpaceOnUse"
       x1="-245.55905"
       y1="-101.98989"
       x2="-245.55905"
       y2="-315.50995"
       gradientTransform="translate(-303.15581,2.1587377)" />
    <linearGradient
       inkscape:collect="always"
       xlink:href="#linearGradient4010"
       id="linearGradient3987"
       gradientUnits="userSpaceOnUse"
       x1="-245.55905"
       y1="-101.98989"
       x2="-245.55905"
       y2="-315.50995"
       gradientTransform="translate(-303.15581,-243.91442)" />
    <linearGradient
       inkscape:collect="always"
       xlink:href="#linearGradient3993"
       id="linearGradient3991"
       gradientUnits="userSpaceOnUse"
       x1="-245.55905"
       y1="-101.98989"
       x2="-245.55905"
       y2="-315.50995"
       gradientTransform="translate(-0.5141077,-243.91442)" />
    <linearGradient
       inkscape:collect="always"
       xlink:href="#linearGradient2783"
       id="linearGradient4383"
       gradientUnits="userSpaceOnUse"
       gradientTransform="matrix(0,0.3866022,-0.238706,0,741.4695,67.174542)"
       x1="854.18555"
       y1="586.24335"
       x2="815.99994"
       y2="586.24335" />
    <linearGradient
       inkscape:collect="always"
       xlink:href="#linearGradient2783"
       id="linearGradient4385"
       gradientUnits="userSpaceOnUse"
       gradientTransform="matrix(0,0.3866022,-0.247091,0,766.2217,99.339817)"
       x1="847.99994"
       y1="588.33716"
       x2="815.99994"
       y2="588.33716" />
    <linearGradient
       inkscape:collect="always"
       xlink:href="#linearGradient2783"
       id="linearGradient4387"
       gradientUnits="userSpaceOnUse"
       gradientTransform="matrix(0,0.3866022,-0.238706,0,741.4696,131.50514)"
       x1="847.99994"
       y1="604.28204"
       x2="815.99994"
       y2="604.28204" />
    <linearGradient
       inkscape:collect="always"
       xlink:href="#linearGradient2783"
       id="linearGradient4389"
       gradientUnits="userSpaceOnUse"
       gradientTransform="matrix(0,0.3866022,-0.2439,0,764.5651,163.67047)"
       x1="847.99994"
       y1="608.46954"
       x2="815.99994"
       y2="608.30847" />
    <radialGradient
       inkscape:collect="always"
       xlink:href="#linearGradient2173"
       id="radialGradient4397"
       gradientUnits="userSpaceOnUse"
       gradientTransform="matrix(0.404092,-1.283066,1.610291,0.50715,-193.3553,1402.059)"
       cx="889.11334"
       cy="437.00476"
       fx="889.11334"
       fy="437.00476"
       r="32" />
    <radialGradient
       inkscape:collect="always"
       xlink:href="#linearGradient2173"
       id="radialGradient4399"
       gradientUnits="userSpaceOnUse"
       gradientTransform="matrix(-0.6819796,-1.1595053,0.8017777,-0.4715766,1127.4161,1716.5971)"
       cx="892.93561"
       cy="434.10468"
       fx="892.93561"
       fy="434.10468"
       r="32" />
    <radialGradient
       inkscape:collect="always"
       xlink:href="#linearGradient2173"
       id="radialGradient10627"
       gradientUnits="userSpaceOnUse"
       gradientTransform="matrix(0.404092,-1.283066,1.610291,0.50715,-193.3553,1402.059)"
       cx="889.11334"
       cy="437.00476"
       fx="889.11334"
       fy="437.00476"
       r="32" />
    <radialGradient
       inkscape:collect="always"
       xlink:href="#linearGradient2173"
       id="radialGradient10629"
       gradientUnits="userSpaceOnUse"
       gradientTransform="matrix(-0.6819796,-1.1595053,0.8017777,-0.4715766,1127.4161,1716.5971)"
       cx="892.93561"
       cy="434.10468"
       fx="892.93561"
       fy="434.10468"
       r="32" />
  </defs>
  <sodipodi:namedview
     id="base"
     pagecolor="#ffffff"
     bordercolor="#666666"
     borderopacity="1.0"
     gridtolerance="50"
     guidetolerance="10"
     objecttolerance="10"
     inkscape:pageopacity="0.0"
     inkscape:pageshadow="2"
     inkscape:zoom="0.50000003"
     inkscape:cx="494.15075"
     inkscape:cy="261.45348"
     inkscape:document-units="px"
     inkscape:current-layer="layer1"
     inkscape:window-width="1280"
     inkscape:window-height="800"
     inkscape:window-x="0"
     inkscape:window-y="0"
     width="864px"
     height="96px"
     showguides="true"
     inkscape:guide-bbox="true"
     fill="#00a7b3"
     showgrid="false" />
  <metadata
     id="metadata7">
    <rdf:RDF>
      <cc:Work
         rdf:about="">
        <dc:format>image/svg+xml</dc:format>
        <dc:type
           rdf:resource="http://purl.org/dc/dcmitype/StillImage" />
      </cc:Work>
    </rdf:RDF>
  </metadata>
  <g
     inkscape:label="Layer 1"
     inkscape:groupmode="layer"
     id="layer1"
     style="display:inline">
    <rect
       style="fill:url(#linearGradient3657);fill-opacity:1.0"
       id="background0"
       width="292.43384"
       height="236.04646"
       x="-391.77597"
       y="-326.82367"
       inkscape:label="#rect18035" />
    <g
       id="Layer"
       transform="translate(847.92181,618.81252)" />
    <g
       style="display:inline"
       id="bar"
       inkscape:label="#g2906"
       transform="matrix(0.4041622,0,0,0.4041622,51.93868,-217.73734)">
      <rect
         y="24.094482"
         x="552"
         height="128"
         width="128"
         id="rect1378"
         style="opacity:1;color:#000000;fill:none;fill-opacity:0.09411765;fill-rule:evenodd;stroke:none;stroke-width:1.09899998;stroke-linecap:butt;stroke-linejoin:round;marker:none;marker-start:none;marker-mid:none;marker-end:none;stroke-miterlimit:4;stroke-dasharray:none;stroke-dashoffset:0;stroke-opacity:0.18823529;visibility:visible;display:inline;overflow:visible" />
      <rect
         y="34.340214"
         x="552"
         height="12.020727"
         width="128"
         id="rect1380"
         style="opacity:1;color:#000000;fill:url(#linearGradient2903);fill-opacity:1;fill-rule:evenodd;stroke:none;stroke-width:1.09899998;stroke-linecap:butt;stroke-linejoin:round;marker:none;marker-start:none;marker-mid:none;marker-end:none;stroke-miterlimit:4;stroke-dasharray:none;stroke-dashoffset:0;stroke-opacity:0.18823529;visibility:visible;display:inline;overflow:visible" />
    </g>
    <g
       style="display:inline"
       id="ladder"
       inkscape:label="#g2385"
       transform="matrix(0.404162,0.000000,0.000000,0.404162,28.66918,-422.8769)">
      <rect
         y="536.09448"
         x="800.00000"
         height="128.00000"
         width="128.00000"
         id="rect2210"
         style="opacity:1.0000000;color:#000000;fill:none;fill-opacity:1.0000000;fill-rule:evenodd;stroke:none;stroke-width:1.0990000;stroke-linecap:butt;stroke-linejoin:round;marker:none;marker-start:none;marker-mid:none;marker-end:none;stroke-miterlimit:4.0000000;stroke-dasharray:none;stroke-dashoffset:0.0000000;stroke-opacity:0.18823524;visibility:visible;display:inline;overflow:visible" />
      <rect
         y="536.09448"
         x="824.00000"
         height="128.00000"
         width="16.000000"
         id="rect2212"
         style="opacity:1.0000000;color:#000000;fill:url(#linearGradient2282);fill-opacity:1.0000000;fill-rule:evenodd;stroke:none;stroke-width:1.0990000;stroke-linecap:butt;stroke-linejoin:round;marker:none;marker-start:none;marker-mid:none;marker-end:none;stroke-miterlimit:4.0000000;stroke-dasharray:none;stroke-dashoffset:0.0000000;stroke-opacity:0.18823524;visibility:visible;display:inline;overflow:visible" />
      <rect
         style="opacity:1.0000000;color:#000000;fill:url(#linearGradient2383);fill-opacity:1.0000000;fill-rule:evenodd;stroke:none;stroke-width:1.0990000;stroke-linecap:butt;stroke-linejoin:round;marker:none;marker-start:none;marker-mid:none;marker-end:none;stroke-miterlimit:4.0000000;stroke-dasharray:none;stroke-dashoffset:0.0000000;stroke-opacity:0.18823524;visibility:visible;display:inline;overflow:visible"
         id="rect2224"
         width="16.000000"
         height="128.00000"
         x="888.00000"
         y="536.09448" />
      <path
         style="color:#000000;fill:url(#linearGradient2276);fill-opacity:1;fill-rule:evenodd;stroke:none;stroke-width:1.09899998;stroke-linecap:butt;stroke-linejoin:round;marker:none;marker-start:none;marker-mid:none;marker-end:none;stroke-miterlimit:4;stroke-dashoffset:0;stroke-opacity:0.18823523;visibility:visible;display:inline;overflow:visible"
         d="M 888,541.55735 L 891.92582,547.74298 L 888,553.92862 L 840,553.92862 L 835.89298,547.74298 L 840,541.55735 L 888,541.55735 z "
         id="rect2228"
         sodipodi:nodetypes="ccccccc" />
      <path
         style="color:#000000;fill:url(#linearGradient2273);fill-opacity:1;fill-rule:evenodd;stroke:none;stroke-width:1.09899998;stroke-linecap:butt;stroke-linejoin:round;marker:none;marker-start:none;marker-mid:none;marker-end:none;stroke-miterlimit:4;stroke-dashoffset:0;stroke-opacity:0.18823523;visibility:visible;display:inline;overflow:visible"
         d="M 888,573.72267 L 891.86543,580.2819 L 888,586.09394 L 840,586.09394 L 835.77219,579.9083 L 840,573.72267 L 888,573.72267 z "
         id="rect2232"
         sodipodi:nodetypes="ccccccc" />
      <path
         style="color:#000000;fill:url(#linearGradient13196);fill-opacity:1;fill-rule:evenodd;stroke:none;stroke-width:1.09899998;stroke-linecap:butt;stroke-linejoin:round;marker:none;marker-start:none;marker-mid:none;marker-end:none;stroke-miterlimit:4;stroke-dashoffset:0;stroke-opacity:0.18823523;visibility:visible;display:inline;overflow:visible"
         d="M 888,605.88799 L 891.92582,611.98022 L 888,618.25926 L 840,618.25926 L 835.89298,612.07362 L 840,605.88799 L 888,605.88799 z "
         id="rect2236"
         sodipodi:nodetypes="ccccccc" />
      <path
         style="color:#000000;fill:url(#linearGradient2267);fill-opacity:1;fill-rule:evenodd;stroke:none;stroke-width:1.09899998;stroke-linecap:butt;stroke-linejoin:round;marker:none;marker-start:none;marker-mid:none;marker-end:none;stroke-miterlimit:4;stroke-dashoffset:0;stroke-opacity:0.18823523;visibility:visible;display:inline;overflow:visible"
         d="M 888,638.05331 L 891.92582,644.23894 L 888,650.42458 L 840,650.42458 L 836.01378,644.23894 L 840,638.05331 L 888,638.05331 z "
         id="rect2240"
         sodipodi:nodetypes="ccccccc" />
    </g>
    <g
       style="display:inline"
       id="hidden_ladder"
       inkscape:label="#g2238"
       transform="matrix(0.4041622,0,0,0.4041622,190.42885,-358.6494)">
      <rect
         style="opacity:1;color:#000000;fill:none;fill-opacity:1;fill-rule:evenodd;stroke:none;stroke-width:1.09899998;stroke-linecap:butt;stroke-linejoin:round;marker:none;marker-start:none;marker-mid:none;marker-end:none;stroke-miterlimit:4;stroke-dasharray:none;stroke-dashoffset:0;stroke-opacity:0.18823529;visibility:visible;display:inline;overflow:visible"
         id="rect2191"
         width="128"
         height="128"
         x="544.43939"
         y="377.56488" />
      <rect
         style="opacity:1;color:#000000;fill:url(#linearGradient2247);fill-opacity:1;fill-rule:evenodd;stroke:none;stroke-width:1.09899998;stroke-linecap:butt;stroke-linejoin:round;marker:none;marker-start:none;marker-mid:none;marker-end:none;stroke-miterlimit:4;stroke-dasharray:none;stroke-dashoffset:0;stroke-opacity:0.18823529;visibility:visible;display:inline;overflow:visible"
         id="rect2193"
         width="16"
         height="128"
         x="568.43939"
         y="377.56488" />
      <rect
         y="377.56488"
         x="632.43939"
         height="128"
         width="16"
         id="rect2195"
         style="opacity:1;color:#000000;fill:url(#linearGradient2249);fill-opacity:1;fill-rule:evenodd;stroke:none;stroke-width:1.09899998;stroke-linecap:butt;stroke-linejoin:round;marker:none;marker-start:none;marker-mid:none;marker-end:none;stroke-miterlimit:4;stroke-dasharray:none;stroke-dashoffset:0;stroke-opacity:0.18823529;visibility:visible;display:inline;overflow:visible" />
      <path
         sodipodi:nodetypes="ccccccc"
         id="path2197"
         d="M 613.50103,382.64192 L 616,388.82756 L 613.50103,395.01319 L 582.9467,395.01319 L 580.33238,388.82756 L 582.9467,382.64192 L 613.50103,382.64192 z "
         style="color:#000000;fill:url(#linearGradient4383);fill-opacity:1;fill-rule:evenodd;stroke:none;stroke-width:1.09899998;stroke-linecap:butt;stroke-linejoin:round;marker:none;marker-start:none;marker-mid:none;marker-end:none;stroke-miterlimit:4;stroke-dashoffset:0;stroke-opacity:0.18823523;visibility:visible;display:inline;overflow:visible" />
      <path
         sodipodi:nodetypes="ccccccc"
         id="path2199"
         d="M 633.75786,414.80722 L 636.30483,421.36646 L 633.75786,427.17849 L 602.13022,427.17849 L 599.34447,420.99286 L 602.13022,414.80722 L 633.75786,414.80722 z "
         style="color:#000000;fill:url(#linearGradient4385);fill-opacity:1;fill-rule:evenodd;stroke:none;stroke-width:1.09899998;stroke-linecap:butt;stroke-linejoin:round;marker:none;marker-start:none;marker-mid:none;marker-end:none;stroke-miterlimit:4;stroke-dashoffset:0;stroke-opacity:0.18823523;visibility:visible;display:inline;overflow:visible" />
      <path
         sodipodi:nodetypes="ccccccc"
         id="path2201"
         d="M 613.50103,446.97253 L 616,453.06476 L 613.50103,459.3438 L 582.9467,459.3438 L 580.33238,453.15816 L 582.9467,446.97253 L 613.50103,446.97253 z "
         style="color:#000000;fill:url(#linearGradient4387);fill-opacity:1;fill-rule:evenodd;stroke:none;stroke-width:1.09899998;stroke-linecap:butt;stroke-linejoin:round;marker:none;marker-start:none;marker-mid:none;marker-end:none;stroke-miterlimit:4;stroke-dashoffset:0;stroke-opacity:0.18823523;visibility:visible;display:inline;overflow:visible" />
      <path
         sodipodi:nodetypes="ccccccc"
         id="path2204"
         d="M 633.81186,479.13783 L 636.36522,485.32347 L 633.81186,491.5091 L 602.59264,491.5091 L 600,485.32347 L 602.59264,479.13783 L 633.81186,479.13783 z "
         style="color:#000000;fill:url(#linearGradient4389);fill-opacity:1;fill-rule:evenodd;stroke:none;stroke-width:1.09899998;stroke-linecap:butt;stroke-linejoin:round;marker:none;marker-start:none;marker-mid:none;marker-end:none;stroke-miterlimit:4;stroke-dashoffset:0;stroke-opacity:0.18823523;visibility:visible;display:inline;overflow:visible" />
    </g>
    <rect
       style="fill:none;fill-opacity:1;stroke:#000000;stroke-width:0.99104893;stroke-miterlimit:4;stroke-dasharray:none;stroke-opacity:1;display:inline"
       id="empty"
       width="50.737892"
       height="50.745491"
       x="83.766586"
       y="-338.50449"
       inkscape:label="#rect2259" />
    <g
       id="concrete"
       inkscape:label="#g4039"
       transform="translate(-4.0037064,-6.2499936)">
      <rect
         style="color:#000000;fill:#666666;fill-opacity:1;fill-rule:nonzero;stroke:none;stroke-width:0.625;stroke-linecap:butt;stroke-linejoin:round;marker:none;marker-start:none;marker-mid:none;marker-end:none;stroke-miterlimit:4;stroke-dasharray:none;stroke-dashoffset:0;stroke-opacity:1;visibility:visible;display:inline;overflow:visible"
         id="rect6402"
         width="51.705963"
         height="51.732761"
         x="83.234314"
         y="-279" />
      <path
         d="M 87.252549,-273.59469 C 87.992735,-273.5855 88.733003,-273.5893 89.473218,-273.59138 C 89.927278,-273.63549 90.360043,-273.56412 90.798761,-273.47663 C 91.068814,-273.18065 91.306971,-272.85237 91.561504,-272.54081 C 91.776227,-272.21687 92.097835,-272.03509 92.414573,-271.82951 C 92.702619,-271.59591 92.937834,-271.30647 93.200681,-271.04455 C 93.739789,-270.65682 94.356148,-270.42366 94.97954,-270.21515 C 95.840692,-270.03643 96.739262,-270.08541 97.615175,-270.08 C 98.618455,-270.07612 99.621015,-270.06447 100.62318,-270.11402 L 100.15537,-269.77085 C 99.152939,-269.72847 98.150314,-269.74195 97.147078,-269.74021 C 96.260706,-269.74204 95.34656,-269.67795 94.477397,-269.87297 C 93.851002,-270.09277 93.229768,-270.33525 92.685038,-270.72497 C 92.42028,-270.98205 92.185506,-271.26784 91.89765,-271.49777 C 91.578285,-271.70918 91.254369,-271.89886 91.038639,-272.22842 C 90.791021,-272.52938 90.560014,-272.85035 90.29081,-273.12933 C 89.858368,-273.21118 89.430231,-273.27638 88.98425,-273.23613 C 88.241,-273.23824 87.497701,-273.24193 86.754479,-273.23282 L 87.252549,-273.59469 z "
         id="path6408"
         style="fill:#000000;fill-opacity:1;stroke:none" />
      <path
         d="M 100.08579,-264.60412 C 100.1384,-264.60377 100.19101,-264.60342 100.24362,-264.60307 L 99.746859,-264.24215 C 99.693292,-264.2418 99.63972,-264.24146 99.586148,-264.24111 L 100.08579,-264.60412 z "
         id="path6410"
         style="fill:#000000;fill-opacity:1;stroke:none" />
      <path
         d="M 107.41593,-256.86003 C 108.44056,-256.8193 109.46008,-256.8714 110.47951,-256.97046 C 110.97223,-257.04979 111.47004,-257.06614 111.96194,-257.06889 C 112.37567,-256.89243 112.71784,-256.58574 113.09288,-256.33963 C 113.65164,-256.08118 114.17108,-256.40836 114.70021,-256.66177 C 114.84737,-256.74467 114.99453,-256.82758 115.14169,-256.91048 C 115.10358,-256.89693 115.06548,-256.88339 115.02738,-256.86984 L 115.58091,-257.08543 C 114.53663,-256.45089 114.98844,-256.7089 114.23645,-256.29246 C 113.68345,-256.03399 113.15645,-255.712 112.5795,-256.00843 C 112.21414,-256.25403 111.87651,-256.56162 111.46107,-256.71484 C 110.97545,-256.70483 110.48649,-256.68385 110.00138,-256.61622 C 108.97598,-256.5243 107.95078,-256.48341 106.921,-256.50044 L 107.41593,-256.86003 z "
         id="path6412"
         style="fill:#000000;fill-opacity:1;stroke:none" />
      <path
         d="M 121.99073,-240.60855 C 120.23294,-240.36112 118.47003,-240.14907 116.70812,-239.9324 C 115.70197,-239.76765 114.76583,-239.6422 113.78586,-239.91971 C 113.3188,-240.12619 112.89155,-240.39534 112.47133,-240.68098 C 112.40621,-240.7211 112.3411,-240.76122 112.27599,-240.80133 L 112.78816,-241.13174 C 112.85294,-241.09153 112.91772,-241.05131 112.9825,-241.0111 C 113.39883,-240.72716 113.82264,-240.46023 114.28773,-240.2595 C 115.2476,-239.9934 116.17476,-240.11981 117.15968,-240.26885 C 118.93566,-240.48004 120.71273,-240.69277 122.47919,-240.97342 L 121.99073,-240.60855 z "
         id="path6414"
         style="fill:#000000;fill-opacity:1;stroke:none" />
      <path
         d="M 105.87576,-250.47202 C 105.83532,-249.85724 105.91973,-249.25234 106.0125,-248.64729 C 106.12502,-248.10032 106.18123,-247.54483 106.22863,-246.98927 C 106.17162,-246.28879 105.67347,-245.93206 105.11708,-245.57456 C 104.26348,-245.1352 102.97954,-244.50929 102.6332,-244.29811 C 102.27438,-243.97809 102.11018,-243.55241 101.93551,-243.12367 C 101.85569,-242.81814 101.77552,-242.51401 101.68666,-242.21172 C 101.51099,-241.87509 101.2061,-241.64271 100.93247,-241.38913 C 100.79802,-241.27888 100.69258,-241.13974 100.57299,-241.01541 L 100.00863,-240.77613 C 100.12726,-240.90316 100.23006,-241.04641 100.3654,-241.15816 C 100.63582,-241.40766 100.93873,-241.63432 101.12942,-241.9546 C 101.22376,-242.25399 101.30522,-242.55519 101.38067,-242.86058 C 101.55357,-243.30099 101.71943,-243.73738 102.07391,-244.07579 C 102.84315,-244.56664 103.77561,-245.1564 104.56591,-245.3604 C 105.10909,-245.69911 105.60646,-246.0327 105.68627,-246.70817 C 105.64487,-247.26356 105.59304,-247.81858 105.48142,-248.36524 C 105.38525,-248.97093 105.30166,-249.57576 105.32549,-250.19164 L 105.87576,-250.47202 z "
         id="path6416"
         style="fill:#000000;fill-opacity:1;stroke:none" />
      <path
         d="M 99.077586,-258.47414 C 98.752632,-258.30621 98.594366,-258.03555 98.398764,-257.74795 C 97.836024,-256.98446 96.85912,-256.58995 96.053237,-256.13494 C 95.665459,-255.90241 95.043591,-255.53129 94.264395,-255.15508 C 93.821037,-254.9671 93.370772,-255.00849 92.906919,-255.06269 C 92.447823,-255.15881 92.00379,-255.29711 91.559927,-255.44645 C 91.270207,-255.53303 90.972647,-255.58805 90.677617,-255.65108 C 90.395366,-256.03006 90.152194,-256.44232 89.865631,-256.82465 C 89.618869,-257.19443 89.300539,-257.36693 88.93282,-257.54968 C 88.348369,-257.63356 87.756215,-257.62208 87.167395,-257.62572 L 87.654374,-257.97944 C 88.248937,-257.97777 88.847126,-257.98873 89.436366,-257.89564 C 89.807949,-257.69743 90.136908,-257.51465 90.3859,-257.13523 C 90.663374,-256.76393 90.904586,-256.3612 91.185968,-256.0006 C 91.480622,-255.93816 91.778017,-255.88248 92.065198,-255.78933 C 92.505315,-255.64005 92.947028,-255.50471 93.403448,-255.41294 C 93.863167,-255.36851 94.307741,-255.33628 94.741981,-255.53424 C 95.554339,-255.93236 95.51347,-255.91998 96.514475,-256.50689 C 96.662382,-256.58865 97.58527,-257.02725 97.839003,-257.49848 C 98.025932,-257.79825 98.173447,-258.07466 98.50389,-258.24391 L 99.077586,-258.47414 z "
         id="path6418"
         style="fill:#000000;fill-opacity:1;stroke:none" />
      <path
         d="M 133.26763,-258.24872 C 131.97512,-258.26437 130.68248,-258.26052 129.38992,-258.25611 C 128.78489,-258.25488 128.17899,-258.26579 127.5779,-258.21577 C 126.78054,-258.15052 126.03701,-257.86164 125.29846,-257.57316 C 124.37407,-257.10479 125.29877,-257.67532 124.45655,-257.00067 C 124.14999,-256.76413 123.92158,-256.45485 123.69195,-256.14783 L 123.13124,-255.90582 C 123.3593,-256.21666 123.58559,-256.53112 123.88971,-256.7738 C 124.4667,-257.23672 125.06708,-257.68289 125.76784,-257.94148 C 126.51327,-258.22869 127.26454,-258.50967 128.06672,-258.58152 C 128.66422,-258.61921 129.26451,-258.60505 129.86451,-258.60092 C 131.16385,-258.59645 132.46327,-258.59285 133.76256,-258.60831 L 133.26763,-258.24872 z "
         id="path6420"
         style="fill:#000000;fill-opacity:1;stroke:none" />
      <path
         d="M 125.89139,-233.23973 C 124.63573,-233.09037 123.41941,-232.77475 122.20319,-232.44133 C 121.55632,-232.24991 120.9294,-231.9989 120.29668,-231.77086 C 119.26226,-231.49554 120.08861,-231.99927 119.66091,-231.49877 C 119.41769,-231.0472 119.34533,-230.54014 119.27143,-230.04017 C 119.13486,-229.338 118.60963,-229.14199 118.01672,-228.8056 C 117.91519,-228.76028 118.37715,-229.07688 117.78117,-228.54592 C 117.48615,-228.35232 117.34429,-228.05975 117.17623,-227.76367 C 117.15205,-227.72196 117.12787,-227.68025 117.10369,-227.63854 L 116.54145,-227.38925 C 116.56654,-227.42993 116.59162,-227.47061 116.61671,-227.51129 C 116.78112,-227.81281 116.91418,-228.11783 117.21078,-228.3135 C 117.5999,-228.66028 117.98233,-229.01772 118.49374,-229.18883 C 117.74374,-228.73389 118.73992,-229.3142 118.72407,-229.76998 C 118.7988,-230.275 118.87142,-230.7883 119.10291,-231.25017 C 119.50541,-231.79179 120.10428,-232.0787 120.77923,-232.14425 C 121.40381,-232.37498 122.02738,-232.61198 122.66794,-232.79822 C 123.89357,-233.12908 125.12085,-233.43306 126.38065,-233.60675 L 125.89139,-233.23973 z "
         id="path6422"
         style="fill:#000000;fill-opacity:1;stroke:none" />
      <path
         d="M 117.13173,-278.82002 C 116.11699,-278.24593 115.07575,-277.50712 113.98418,-276.6846 C 113.3169,-276.1891 112.70989,-275.64182 112.27067,-274.94058 C 112.17239,-274.58946 112.0751,-274.25099 111.96358,-273.90876 C 111.83194,-273.64695 111.59004,-273.46259 111.37838,-273.26512 L 110.81173,-273.02813 C 111.02069,-273.22395 111.26291,-273.40948 111.40477,-273.65728 C 111.5266,-273.99922 111.62936,-274.33036 111.71636,-274.69054 C 112.14855,-275.41494 112.77048,-275.96567 113.44943,-276.47177 C 114.27924,-277.09832 116.41092,-278.57245 116.55814,-278.59754 L 117.13173,-278.82002 z "
         id="path6424"
         style="fill:#000000;fill-opacity:1;stroke:none" />
      <path
         d="M 118.18782,-265.51088 C 118.10767,-265.97741 118.04589,-266.44565 118.00176,-266.91626 C 118.04822,-267.34884 118.3335,-267.64512 118.60366,-267.96149 C 118.91068,-268.26722 119.23106,-268.55831 119.55892,-268.84112 C 119.97926,-269.23273 120.52823,-269.4298 121.02885,-269.67318 C 121.38656,-269.68602 121.58114,-269.35412 121.84336,-269.12578 C 122.1979,-268.86422 122.39518,-268.46251 122.60793,-268.08899 C 122.81299,-267.67865 122.87482,-267.26994 122.87132,-266.82031 C 122.76406,-266.40279 122.44977,-266.18434 122.13974,-265.92822 C 121.52587,-265.5026 121.39765,-265.45744 120.84306,-265.72196 C 120.59505,-265.95974 120.64829,-266.13224 120.67821,-266.44443 C 120.81114,-266.74204 120.90717,-267.04939 121.0008,-267.36003 C 121.01802,-267.46042 120.98294,-267.55614 120.97401,-267.6542 L 121.51664,-267.94211 C 121.52939,-267.83702 121.56442,-267.73463 121.55489,-267.62684 C 121.46492,-267.31521 121.37827,-267.00487 121.23178,-266.71232 C 121.18937,-266.42065 121.13481,-266.27781 121.36143,-266.05498 C 121.73775,-265.89459 122.28327,-266.02506 121.56669,-265.7061 C 121.87619,-265.94546 122.19754,-266.14788 122.32536,-266.54694 C 122.33806,-266.98823 122.27677,-267.38412 122.07773,-267.78792 C 121.86878,-268.15518 121.67463,-268.54666 121.32465,-268.8027 C 121.07227,-269.02378 120.89117,-269.33695 120.54168,-269.29817 C 120.0038,-269.00161 120.97173,-269.70437 120.12618,-269.06908 C 119.79613,-268.78948 119.47658,-268.49915 119.16571,-268.19781 C 118.90153,-267.89499 118.61191,-267.6079 118.54505,-267.19594 C 118.58293,-266.72475 118.63644,-266.25457 118.7381,-265.79126 L 118.18782,-265.51088 z "
         id="path6426"
         style="fill:#000000;fill-opacity:1;stroke:none" />
      <path
         d="M 83.602026,-234.25901 C 84.437733,-234.24968 85.273532,-234.25107 86.109275,-234.2525 C 86.801281,-234.28846 87.361232,-234.32938 87.903205,-233.91384 C 88.102785,-233.51079 88.366137,-233.2176 88.713894,-232.94617 C 89.028235,-232.74251 89.392139,-232.67641 89.745648,-232.58172 C 90.06068,-232.52311 90.380857,-232.52003 90.699769,-232.50912 C 91.172385,-232.51882 91.642846,-232.49795 92.113642,-232.47307 C 92.675237,-232.37584 93.23248,-232.31965 93.791315,-232.35084 C 94.523402,-232.68231 93.296216,-232.01011 94.381489,-232.65952 C 94.934642,-232.93604 95.289439,-233.42713 95.687002,-233.87923 C 95.776422,-234.00037 95.900395,-234.08556 96.007094,-234.18873 L 96.573253,-234.41847 C 96.464173,-234.31721 96.335443,-234.23725 96.24601,-234.11467 C 95.843477,-233.66416 95.498969,-233.15756 94.944705,-232.8774 C 94.412226,-232.5585 93.899134,-232.17597 93.305084,-231.98365 C 92.742583,-231.9711 92.184629,-232.03112 91.622993,-232.12316 C 91.149335,-232.1424 90.676017,-232.15717 90.201179,-232.14849 C 89.880824,-232.16233 89.559147,-232.16835 89.243335,-232.23173 C 88.884103,-232.33131 88.515725,-232.40431 88.199614,-232.6184 C 87.851234,-232.89549 87.582604,-233.19169 87.381141,-233.59814 C 86.854303,-233.98365 86.286152,-233.92678 85.627566,-233.90251 C 84.785842,-233.90395 83.944073,-233.90523 83.102385,-233.896 L 83.602026,-234.25901 z "
         id="path6428"
         style="fill:#000000;fill-opacity:1;stroke:none" />
    </g>
    <g
       id="brick"
       inkscape:label="#g8357"
       transform="translate(3.7348919,-5.4443789)">
      <g
         transform="matrix(0.7826519,0,0,1,28.524602,-0.3213057)"
         id="g8224">
        <path
           style="fill:#280b0b;fill-opacity:1;stroke:none"
           d="M 111.03581,-201.05624 L 131.23924,-201.05624 L 131.23924,-188.17153 L 111.03581,-188.17153 L 111.03581,-201.05624 z "
           id="path7814" />
        <path
           style="fill:#aa0000;fill-opacity:1;stroke:none"
           d="M 112.15185,-200.50974 L 131.23924,-200.50974 L 131.23924,-188.71803 L 112.15185,-188.71803 L 112.15185,-200.50974 z "
           id="path7816" />
      </g>
      <g
         transform="translate(-0.1071019,0)"
         id="g8216">
        <path
           style="fill:#280b0b;fill-opacity:1;stroke:none"
           d="M 124.33303,-213.55562 L 131.37221,-213.55562 L 131.37221,-201.33577 L 124.33303,-201.33577 L 124.33303,-213.55562 z "
           id="path7820" />
        <path
           style="fill:#aa0000;fill-opacity:1;stroke:none"
           d="M 124.89104,-212.6102 L 131.34606,-212.6102 L 131.34606,-201.88227 L 124.89104,-201.88227 L 124.89104,-212.6102 z "
           id="path7822" />
      </g>
      <g
         transform="matrix(1,0,0,0.9828442,0,-3.6637186)"
         id="g8220">
        <path
           style="fill:#280b0b;fill-opacity:1;stroke:none"
           d="M 85.106255,-213.55562 L 124.59063,-213.55562 L 124.59063,-201.06983 L 85.106255,-201.06983 L 85.106255,-213.55562 z "
           id="path7826" />
        <path
           style="fill:#aa0000;fill-opacity:1;stroke:none"
           d="M 85.996706,-212.67669 L 123.70018,-212.67669 L 123.70018,-201.94876 L 85.996706,-201.94876 L 85.996706,-212.67669 z "
           id="path7828" />
      </g>
      <g
         transform="matrix(1.6990489,0,0,1.016975,-73.289529,3.1174963)"
         id="g8228">
        <path
           style="fill:#280b0b;fill-opacity:1;stroke:none"
           d="M 98.137515,-201.05624 L 111.16044,-201.05624 L 111.16044,-188.43747 L 98.137515,-188.43747 L 98.137515,-201.05624 z "
           id="path7832" />
        <path
           id="path7834"
           d="M 98.875624,-200.57622 L 110.53593,-200.57622 L 110.53593,-188.91749 L 98.875624,-188.91749 L 98.875624,-200.57622 z "
           style="fill:#a00000;fill-opacity:1;stroke:none" />
      </g>
      <g
         transform="matrix(-0.7614472,0,0,1,178.51569,-0.3213057)"
         id="g8233">
        <path
           id="path8235"
           d="M 111.03581,-201.05624 L 131.23924,-201.05624 L 131.23924,-188.17153 L 111.03581,-188.17153 L 111.03581,-201.05624 z "
           style="fill:#280b0b;fill-opacity:1;stroke:none" />
        <path
           id="path8237"
           d="M 112.15185,-200.50974 L 131.23924,-200.50974 L 131.23924,-188.71803 L 112.15185,-188.71803 L 112.15185,-200.50974 z "
           style="fill:#aa0000;fill-opacity:1;stroke:none" />
      </g>
      <g
         id="g8239"
         transform="matrix(-0.9695698,0,0,1,205.97505,0)">
        <path
           id="path8241"
           d="M 124.33303,-213.55562 L 131.37221,-213.55562 L 131.37221,-201.33577 L 124.33303,-201.33577 L 124.33303,-213.55562 z "
           style="fill:#280b0b;fill-opacity:1;stroke:none" />
        <path
           id="path8243"
           d="M 124.89104,-212.6102 L 131.34606,-212.6102 L 131.34606,-201.88227 L 124.89104,-201.88227 L 124.89104,-212.6102 z "
           style="fill:#aa0000;fill-opacity:1;stroke:none" />
      </g>
      <g
         id="g8247"
         transform="translate(0,24.684429)">
        <path
           id="path8249"
           d="M 111.03581,-201.05624 L 131.23924,-201.05624 L 131.23924,-188.17153 L 111.03581,-188.17153 L 111.03581,-201.05624 z "
           style="fill:#280b0b;fill-opacity:1;stroke:none" />
        <path
           id="path8251"
           d="M 112.15185,-200.50974 L 131.23924,-200.50974 L 131.23924,-188.71803 L 112.15185,-188.71803 L 112.15185,-200.50974 z "
           style="fill:#aa0000;fill-opacity:1;stroke:none" />
      </g>
      <g
         id="g8253"
         transform="translate(-0.1071019,25.005735)">
        <path
           id="path8255"
           d="M 124.33303,-213.55562 L 131.37221,-213.55562 L 131.37221,-201.33577 L 124.33303,-201.33577 L 124.33303,-213.55562 z "
           style="fill:#280b0b;fill-opacity:1;stroke:none" />
        <path
           id="path8257"
           d="M 124.89104,-212.6102 L 131.34606,-212.6102 L 131.34606,-201.88227 L 124.89104,-201.88227 L 124.89104,-212.6102 z "
           style="fill:#a00000;fill-opacity:1;stroke:none" />
      </g>
      <g
         id="g8259"
         transform="matrix(1,0,0,0.9828442,0,21.342016)">
        <path
           id="path8261"
           d="M 85.106255,-213.55562 L 124.59063,-213.55562 L 124.59063,-201.06983 L 85.106255,-201.06983 L 85.106255,-213.55562 z "
           style="fill:#280b0b;fill-opacity:1;stroke:none" />
        <path
           id="path8263"
           d="M 85.996706,-212.67669 L 123.70018,-212.67669 L 123.70018,-201.94876 L 85.996706,-201.94876 L 85.996706,-212.67669 z "
           style="fill:#aa0000;fill-opacity:1;stroke:none" />
      </g>
      <g
         id="g8265"
         transform="matrix(1,0,0,1.016975,0.1329721,28.123231)">
        <path
           id="path8267"
           d="M 98.137515,-201.05624 L 111.16044,-201.05624 L 111.16044,-188.43747 L 98.137515,-188.43747 L 98.137515,-201.05624 z "
           style="fill:#280b0b;fill-opacity:1;stroke:none" />
        <path
           style="fill:#aa0000;fill-opacity:1;stroke:none"
           d="M 98.875624,-200.57622 L 110.53593,-200.57622 L 110.53593,-188.91749 L 98.875624,-188.91749 L 98.875624,-200.57622 z "
           id="path8269" />
      </g>
      <g
         id="g8271"
         transform="matrix(-1,0,0,1,209.82318,24.684429)">
        <path
           style="fill:#280b0b;fill-opacity:1;stroke:none"
           d="M 111.03581,-201.05624 L 131.23924,-201.05624 L 131.23924,-188.17153 L 111.03581,-188.17153 L 111.03581,-201.05624 z "
           id="path8273" />
        <path
           style="fill:#aa0000;fill-opacity:1;stroke:none"
           d="M 112.15185,-200.50974 L 131.23924,-200.50974 L 131.23924,-188.71803 L 112.15185,-188.71803 L 112.15185,-200.50974 z "
           id="path8275" />
      </g>
      <g
         transform="matrix(-0.9695698,0,0,1,205.97505,25.005735)"
         id="g8277">
        <path
           style="fill:#280b0b;fill-opacity:1;stroke:none"
           d="M 124.33303,-213.55562 L 131.37221,-213.55562 L 131.37221,-201.33577 L 124.33303,-201.33577 L 124.33303,-213.55562 z "
           id="path8279" />
        <path
           style="fill:#a00000;fill-opacity:1;stroke:none"
           d="M 124.89104,-212.6102 L 131.34606,-212.6102 L 131.34606,-201.88227 L 124.89104,-201.88227 L 124.89104,-212.6102 z "
           id="path8281" />
      </g>
    </g>
    <g
       inkscape:label="#g8357"
       id="brick_1"
       transform="translate(98.205261,98.683895)">
      <g
         id="g8397"
         transform="matrix(0.7826519,0,0,1,28.524602,-0.3213057)">
        <path
           id="path8399"
           d="M 111.03581,-201.05624 L 131.23924,-201.05624 L 131.23924,-188.17153 L 111.03581,-188.17153 L 111.03581,-201.05624 z "
           style="fill:#280b0b;fill-opacity:1;stroke:none" />
        <path
           id="path8401"
           d="M 112.15185,-200.50974 L 131.23924,-200.50974 L 131.23924,-188.71803 L 112.15185,-188.71803 L 112.15185,-200.50974 z "
           style="fill:#aa0000;fill-opacity:1;stroke:none" />
      </g>
      <g
         id="g8403"
         transform="translate(-0.1071019,0)">
        <path
           id="path8405"
           d="M 124.33303,-213.55562 L 131.37221,-213.55562 L 131.37221,-201.33577 L 124.33303,-201.33577 L 124.33303,-213.55562 z "
           style="fill:#280b0b;fill-opacity:1;stroke:none" />
        <path
           id="path8407"
           d="M 124.89104,-212.6102 L 131.34606,-212.6102 L 131.34606,-201.88227 L 124.89104,-201.88227 L 124.89104,-212.6102 z "
           style="fill:#aa0000;fill-opacity:1;stroke:none" />
      </g>
      <g
         id="g8409"
         transform="matrix(1,0,0,0.9828442,0,-3.6637186)" />
      <g
         id="g8415"
         transform="matrix(1.6990489,0,0,1.016975,-73.289529,3.1174963)">
        <path
           id="path8417"
           d="M 98.137515,-201.05624 L 111.16044,-201.05624 L 111.16044,-188.43747 L 98.137515,-188.43747 L 98.137515,-201.05624 z "
           style="fill:#280b0b;fill-opacity:1;stroke:none" />
        <path
           style="fill:#aa0000;fill-opacity:1;stroke:none"
           d="M 98.875624,-200.57622 L 110.53593,-200.57622 L 110.53593,-188.91749 L 98.875624,-188.91749 L 98.875624,-200.57622 z "
           id="path8419" />
      </g>
      <g
         id="g8421"
         transform="matrix(-0.7614472,0,0,1,178.51569,-0.3213057)">
        <path
           style="fill:#280b0b;fill-opacity:1;stroke:none"
           d="M 111.03581,-201.05624 L 131.23924,-201.05624 L 131.23924,-188.17153 L 111.03581,-188.17153 L 111.03581,-201.05624 z "
           id="path8423" />
        <path
           style="fill:#aa0000;fill-opacity:1;stroke:none"
           d="M 112.15185,-200.50974 L 131.23924,-200.50974 L 131.23924,-188.71803 L 112.15185,-188.71803 L 112.15185,-200.50974 z "
           id="path8425" />
      </g>
      <g
         transform="matrix(-0.9695698,0,0,1,205.97505,0)"
         id="g8427">
        <path
           style="fill:#280b0b;fill-opacity:1;stroke:none"
           d="M 124.33303,-213.55562 L 131.37221,-213.55562 L 131.37221,-201.33577 L 124.33303,-201.33577 L 124.33303,-213.55562 z "
           id="path8429" />
        <path
           style="fill:#aa0000;fill-opacity:1;stroke:none"
           d="M 124.89104,-212.6102 L 131.34606,-212.6102 L 131.34606,-201.88227 L 124.89104,-201.88227 L 124.89104,-212.6102 z "
           id="path8431" />
      </g>
      <g
         transform="translate(0,24.684429)"
         id="g8433">
        <path
           style="fill:#280b0b;fill-opacity:1;stroke:none"
           d="M 111.03581,-201.05624 L 131.23924,-201.05624 L 131.23924,-188.17153 L 111.03581,-188.17153 L 111.03581,-201.05624 z "
           id="path8435" />
        <path
           style="fill:#aa0000;fill-opacity:1;stroke:none"
           d="M 112.15185,-200.50974 L 131.23924,-200.50974 L 131.23924,-188.71803 L 112.15185,-188.71803 L 112.15185,-200.50974 z "
           id="path8437" />
      </g>
      <g
         transform="translate(-0.1071019,25.005735)"
         id="g8439">
        <path
           style="fill:#280b0b;fill-opacity:1;stroke:none"
           d="M 124.33303,-213.55562 L 131.37221,-213.55562 L 131.37221,-201.33577 L 124.33303,-201.33577 L 124.33303,-213.55562 z "
           id="path8441" />
        <path
           style="fill:#aa0000;fill-opacity:1;stroke:none"
           d="M 124.89104,-212.6102 L 131.34606,-212.6102 L 131.34606,-201.88227 L 124.89104,-201.88227 L 124.89104,-212.6102 z "
           id="path8443" />
      </g>
      <g
         transform="matrix(1,0,0,0.9828442,0,21.342016)"
         id="g8445">
        <path
           style="fill:#280b0b;fill-opacity:1;stroke:none"
           d="M 85.106255,-213.55562 L 124.59063,-213.55562 L 124.59063,-201.06983 L 85.106255,-201.06983 L 85.106255,-213.55562 z "
           id="path8447" />
        <path
           style="fill:#aa0000;fill-opacity:1;stroke:none"
           d="M 85.996706,-212.67669 L 123.70018,-212.67669 L 123.70018,-201.94876 L 85.996706,-201.94876 L 85.996706,-212.67669 z "
           id="path8449" />
      </g>
      <g
         transform="matrix(1,0,0,1.016975,0.1329721,28.123231)"
         id="g8451">
        <path
           style="fill:#280b0b;fill-opacity:1;stroke:none"
           d="M 98.137515,-201.05624 L 111.16044,-201.05624 L 111.16044,-188.43747 L 98.137515,-188.43747 L 98.137515,-201.05624 z "
           id="path8453" />
        <path
           id="path8455"
           d="M 98.875624,-200.57622 L 110.53593,-200.57622 L 110.53593,-188.91749 L 98.875624,-188.91749 L 98.875624,-200.57622 z "
           style="fill:#aa0000;fill-opacity:1;stroke:none" />
      </g>
      <g
         transform="matrix(-1,0,0,1,209.82318,24.684429)"
         id="g8457">
        <path
           id="path8459"
           d="M 111.03581,-201.05624 L 131.23924,-201.05624 L 131.23924,-188.17153 L 111.03581,-188.17153 L 111.03581,-201.05624 z "
           style="fill:#280b0b;fill-opacity:1;stroke:none" />
        <path
           id="path8461"
           d="M 112.15185,-200.50974 L 131.23924,-200.50974 L 131.23924,-188.71803 L 112.15185,-188.71803 L 112.15185,-200.50974 z "
           style="fill:#aa0000;fill-opacity:1;stroke:none" />
      </g>
      <g
         id="g8463"
         transform="matrix(-0.9695698,0,0,1,205.97505,25.005735)">
        <path
           id="path8465"
           d="M 124.33303,-213.55562 L 131.37221,-213.55562 L 131.37221,-201.33577 L 124.33303,-201.33577 L 124.33303,-213.55562 z "
           style="fill:#280b0b;fill-opacity:1;stroke:none" />
        <path
           id="path8467"
           d="M 124.89104,-212.6102 L 131.34606,-212.6102 L 131.34606,-201.88227 L 124.89104,-201.88227 L 124.89104,-212.6102 z "
           style="fill:#aa0000;fill-opacity:1;stroke:none" />
      </g>
    </g>
    <g
       transform="translate(641.65879,98.683895)"
       id="brick_9"
       inkscape:label="#g8357">
      <g
         transform="matrix(0.7826519,0,0,1,28.524602,-0.3213057)"
         id="g8471">
        <path
           style="fill:#280b0b;fill-opacity:1;stroke:none"
           d="M 111.03581,-201.05624 L 131.23924,-201.05624 L 131.23924,-188.17153 L 111.03581,-188.17153 L 111.03581,-201.05624 z "
           id="path8473" />
        <path
           style="fill:#aa0000;fill-opacity:1;stroke:none"
           d="M 112.15185,-200.50974 L 131.23924,-200.50974 L 131.23924,-188.71803 L 112.15185,-188.71803 L 112.15185,-200.50974 z "
           id="path8475" />
      </g>
      <g
         transform="translate(-0.1071019,0)"
         id="g8477">
        <path
           style="fill:#280b0b;fill-opacity:1;stroke:none"
           d="M 124.33303,-213.55562 L 131.37221,-213.55562 L 131.37221,-201.33577 L 124.33303,-201.33577 L 124.33303,-213.55562 z "
           id="path8479" />
      </g>
      <g
         transform="matrix(1,0,0,0.9828442,0,-3.6637186)"
         id="g8483" />
      <g
         transform="matrix(1.6990489,0,0,1.016975,-73.289529,3.1174963)"
         id="g8485">
        <path
           style="fill:#280b0b;fill-opacity:1;stroke:none"
           d="M 98.137515,-201.05624 L 111.16044,-201.05624 L 111.16044,-188.43747 L 98.137515,-188.43747 L 98.137515,-201.05624 z "
           id="path8487" />
      </g>
      <g
         transform="matrix(-0.7614472,0,0,1,178.51569,-0.3213057)"
         id="g8491">
        <path
           id="path8493"
           d="M 111.03581,-201.05624 L 131.23924,-201.05624 L 131.23924,-188.17153 L 111.03581,-188.17153 L 111.03581,-201.05624 z "
           style="fill:#280b0b;fill-opacity:1;stroke:none" />
        <path
           id="path8495"
           d="M 112.15185,-200.50974 L 131.23924,-200.50974 L 131.23924,-188.71803 L 112.15185,-188.71803 L 112.15185,-200.50974 z "
           style="fill:#aa0000;fill-opacity:1;stroke:none" />
      </g>
      <g
         id="g8497"
         transform="matrix(-0.9695698,0,0,1,205.97505,0)">
        <path
           id="path8499"
           d="M 124.33303,-213.55562 L 131.37221,-213.55562 L 131.37221,-201.33577 L 124.33303,-201.33577 L 124.33303,-213.55562 z "
           style="fill:#280b0b;fill-opacity:1;stroke:none" />
        <path
           id="path8501"
           d="M 124.89104,-212.6102 L 131.34606,-212.6102 L 131.34606,-201.88227 L 124.89104,-201.88227 L 124.89104,-212.6102 z "
           style="fill:#aa0000;fill-opacity:1;stroke:none" />
      </g>
      <g
         id="g8503"
         transform="translate(0,24.684429)">
        <path
           id="path8505"
           d="M 111.03581,-201.05624 L 131.23924,-201.05624 L 131.23924,-188.17153 L 111.03581,-188.17153 L 111.03581,-201.05624 z "
           style="fill:#280b0b;fill-opacity:1;stroke:none" />
        <path
           id="path8507"
           d="M 112.15185,-200.50974 L 131.23924,-200.50974 L 131.23924,-188.71803 L 112.15185,-188.71803 L 112.15185,-200.50974 z "
           style="fill:#aa0000;fill-opacity:1;stroke:none" />
      </g>
      <g
         id="g8509"
         transform="translate(-0.1071019,25.005735)">
        <path
           id="path8511"
           d="M 124.33303,-213.55562 L 131.37221,-213.55562 L 131.37221,-201.33577 L 124.33303,-201.33577 L 124.33303,-213.55562 z "
           style="fill:#280b0b;fill-opacity:1;stroke:none" />
        <path
           id="path8513"
           d="M 124.89104,-212.6102 L 131.34606,-212.6102 L 131.34606,-201.88227 L 124.89104,-201.88227 L 124.89104,-212.6102 z "
           style="fill:#aa0000;fill-opacity:1;stroke:none" />
      </g>
      <g
         id="g8515"
         transform="matrix(1,0,0,0.9828442,0,21.342016)">
        <path
           id="path8517"
           d="M 85.106255,-213.55562 L 124.59063,-213.55562 L 124.59063,-201.06983 L 85.106255,-201.06983 L 85.106255,-213.55562 z "
           style="fill:#280b0b;fill-opacity:1;stroke:none" />
        <path
           id="path8519"
           d="M 85.996706,-212.67669 L 123.70018,-212.67669 L 123.70018,-201.94876 L 85.996706,-201.94876 L 85.996706,-212.67669 z "
           style="fill:#aa0000;fill-opacity:1;stroke:none" />
      </g>
      <g
         id="g8521"
         transform="matrix(1,0,0,1.016975,0.1329721,28.123231)">
        <path
           id="path8523"
           d="M 98.137515,-201.05624 L 111.16044,-201.05624 L 111.16044,-188.43747 L 98.137515,-188.43747 L 98.137515,-201.05624 z "
           style="fill:#280b0b;fill-opacity:1;stroke:none" />
        <path
           style="fill:#aa0000;fill-opacity:1;stroke:none"
           d="M 98.875624,-200.57622 L 110.53593,-200.57622 L 110.53593,-188.91749 L 98.875624,-188.91749 L 98.875624,-200.57622 z "
           id="path8525" />
      </g>
      <g
         id="g8527"
         transform="matrix(-1,0,0,1,209.82318,24.684429)">
        <path
           style="fill:#280b0b;fill-opacity:1;stroke:none"
           d="M 111.03581,-201.05624 L 131.23924,-201.05624 L 131.23924,-188.17153 L 111.03581,-188.17153 L 111.03581,-201.05624 z "
           id="path8529" />
        <path
           style="fill:#aa0000;fill-opacity:1;stroke:none"
           d="M 112.15185,-200.50974 L 131.23924,-200.50974 L 131.23924,-188.71803 L 112.15185,-188.71803 L 112.15185,-200.50974 z "
           id="path8531" />
      </g>
      <g
         transform="matrix(-0.9695698,0,0,1,205.97505,25.005735)"
         id="g8533">
        <path
           style="fill:#280b0b;fill-opacity:1;stroke:none"
           d="M 124.33303,-213.55562 L 131.37221,-213.55562 L 131.37221,-201.33577 L 124.33303,-201.33577 L 124.33303,-213.55562 z "
           id="path8535" />
        <path
           style="fill:#aa0000;fill-opacity:1;stroke:none"
           d="M 124.89104,-212.6102 L 131.34606,-212.6102 L 131.34606,-201.88227 L 124.89104,-201.88227 L 124.89104,-212.6102 z "
           id="path8537" />
      </g>
    </g>
    <g
       transform="translate(135.75629,2.8175754)"
       id="g8547" />
    <g
       transform="matrix(1,0,0,0.9828442,135.86339,-0.8461432)"
       id="g8551" />
    <g
       transform="matrix(1.6990489,0,0,1.016975,62.573861,5.9350717)"
       id="g8553" />
    <g
       id="g8563"
       transform="matrix(-0.9695698,0,0,1,341.83844,2.8175754)" />
    <g
       id="g8613"
       transform="translate(239.8929,0)" />
    <g
       id="g8615"
       transform="matrix(1,0,0,0.9828442,240,-3.6637186)" />
    <g
       id="g8617"
       transform="matrix(1.6990489,0,0,1.016975,166.71047,3.1174963)" />
    <g
       transform="matrix(-0.9695698,0,0,1,445.97505,0)"
       id="g8625" />
    <g
       id="brick_8"
       inkscape:label="#g9662"
       transform="translate(333.83115,98.707324)">
      <g
         transform="matrix(0.7826519,0,0,1,268.5246,-0.3213057)"
         id="g8607">
        <path
           style="fill:#280b0b;fill-opacity:1;stroke:none"
           d="M 111.03581,-201.05624 L 131.23924,-201.05624 L 131.23924,-188.17153 L 111.03581,-188.17153 L 111.03581,-201.05624 z "
           id="path8609" />
        <path
           style="fill:#aa0000;fill-opacity:1;stroke:none"
           d="M 112.15185,-200.50974 L 131.23924,-200.50974 L 131.23924,-188.71803 L 112.15185,-188.71803 L 112.15185,-200.50974 z "
           id="path8611" />
      </g>
      <g
         transform="matrix(-0.7614472,0,0,1,418.51569,-0.3213057)"
         id="g8619" />
      <g
         id="g8629"
         transform="translate(240,24.684429)">
        <path
           id="path8631"
           d="M 111.03581,-201.05624 L 131.23924,-201.05624 L 131.23924,-188.17153 L 111.03581,-188.17153 L 111.03581,-201.05624 z "
           style="fill:#280b0b;fill-opacity:1;stroke:none" />
        <path
           id="path8633"
           d="M 112.15185,-200.50974 L 131.23924,-200.50974 L 131.23924,-188.71803 L 112.15185,-188.71803 L 112.15185,-200.50974 z "
           style="fill:#aa0000;fill-opacity:1;stroke:none" />
      </g>
      <g
         id="g8635"
         transform="translate(239.8929,25.005735)">
        <path
           id="path8637"
           d="M 124.33303,-213.55562 L 131.37221,-213.55562 L 131.37221,-201.33577 L 124.33303,-201.33577 L 124.33303,-213.55562 z "
           style="fill:#280b0b;fill-opacity:1;stroke:none" />
        <path
           id="path8639"
           d="M 124.89104,-212.6102 L 131.34606,-212.6102 L 131.34606,-201.88227 L 124.89104,-201.88227 L 124.89104,-212.6102 z "
           style="fill:#aa0000;fill-opacity:1;stroke:none" />
      </g>
      <g
         id="g8641"
         transform="matrix(1,0,0,0.9828442,240,21.342016)">
        <path
           id="path8643"
           d="M 85.106255,-213.55562 L 124.59063,-213.55562 L 124.59063,-201.06983 L 85.106255,-201.06983 L 85.106255,-213.55562 z "
           style="fill:#280b0b;fill-opacity:1;stroke:none" />
      </g>
      <g
         id="g8647"
         transform="matrix(1,0,0,1.016975,240.13297,28.123231)">
        <path
           id="path8649"
           d="M 98.137515,-201.05624 L 111.16044,-201.05624 L 111.16044,-188.43747 L 98.137515,-188.43747 L 98.137515,-201.05624 z "
           style="fill:#280b0b;fill-opacity:1;stroke:none" />
        <path
           style="fill:#aa0000;fill-opacity:1;stroke:none"
           d="M 98.875624,-200.57622 L 110.53593,-200.57622 L 110.53593,-188.91749 L 98.875624,-188.91749 L 98.875624,-200.57622 z "
           id="path8651" />
      </g>
      <g
         id="g8653"
         transform="matrix(-1,0,0,1,449.82318,24.684429)">
        <path
           style="fill:#280b0b;fill-opacity:1;stroke:none"
           d="M 111.03581,-201.05624 L 131.23924,-201.05624 L 131.23924,-188.17153 L 111.03581,-188.17153 L 111.03581,-201.05624 z "
           id="path8655" />
        <path
           style="fill:#aa0000;fill-opacity:1;stroke:none"
           d="M 112.15185,-200.50974 L 131.23924,-200.50974 L 131.23924,-188.71803 L 112.15185,-188.71803 L 112.15185,-200.50974 z "
           id="path8657" />
      </g>
      <g
         transform="matrix(-0.9695698,0,0,1,445.97505,25.005735)"
         id="g8659">
        <path
           style="fill:#280b0b;fill-opacity:1;stroke:none"
           d="M 124.33303,-213.55562 L 131.37221,-213.55562 L 131.37221,-201.33577 L 124.33303,-201.33577 L 124.33303,-213.55562 z "
           id="path8661" />
        <path
           style="fill:#aa0000;fill-opacity:1;stroke:none"
           d="M 124.89104,-212.6102 L 131.34606,-212.6102 L 131.34606,-201.88227 L 124.89104,-201.88227 L 124.89104,-212.6102 z "
           id="path8663" />
      </g>
      <rect
         y="-213.60248"
         x="318.37589"
         height="49.649883"
         width="52.84166"
         id="rect8665"
         style="fill:none;fill-opacity:1;stroke:none" />
    </g>
    <g
       inkscape:label="#g9662"
       id="brick_4"
       transform="translate(65.739112,97.016779)">
      <g
         id="g9689"
         transform="matrix(0.7826519,0,0,1,268.5246,-0.3213057)" />
      <g
         id="g9695"
         transform="matrix(-0.7614472,0,0,1,418.51569,-0.3213057)" />
      <g
         transform="translate(240,24.684429)"
         id="g9699">
        <path
           style="fill:#280b0b;fill-opacity:1;stroke:none"
           d="M 111.03581,-201.05624 L 131.23924,-201.05624 L 131.23924,-188.17153 L 111.03581,-188.17153 L 111.03581,-201.05624 z "
           id="path9701" />
        <path
           style="fill:#aa0000;fill-opacity:1;stroke:none"
           d="M 112.15185,-200.50974 L 131.23924,-200.50974 L 131.23924,-188.71803 L 112.15185,-188.71803 L 112.15185,-200.50974 z "
           id="path9703" />
      </g>
      <g
         transform="translate(239.8929,25.005735)"
         id="g9705" />
      <g
         transform="matrix(1,0,0,0.9828442,240,21.342016)"
         id="g9711" />
      <g
         transform="matrix(1,0,0,1.016975,240.13297,28.123231)"
         id="g9715" />
      <g
         transform="matrix(-1,0,0,1,449.82318,24.684429)"
         id="g9721">
        <path
           id="path9723"
           d="M 111.03581,-201.05624 L 131.23924,-201.05624 L 131.23924,-188.17153 L 111.03581,-188.17153 L 111.03581,-201.05624 z "
           style="fill:#280b0b;fill-opacity:1;stroke:none" />
        <path
           id="path9725"
           d="M 112.15185,-200.50974 L 131.23924,-200.50974 L 131.23924,-188.71803 L 112.15185,-188.71803 L 112.15185,-200.50974 z "
           style="fill:#aa0000;fill-opacity:1;stroke:none" />
      </g>
      <g
         id="g9727"
         transform="matrix(-0.9695698,0,0,1,445.97505,25.005735)" />
      <rect
         style="fill:none;fill-opacity:1;stroke:none"
         id="rect9733"
         width="52.84166"
         height="49.649883"
         x="318.37589"
         y="-213.60248" />
    </g>
    <g
       transform="matrix(0.7826519,0,0,1,366.36834,2.5196987)"
       id="g9930" />
    <g
       transform="matrix(-0.7614472,0,0,1,516.35943,2.5196987)"
       id="g9932" />
    <g
       id="g9934"
       transform="translate(337.84374,27.525433)" />
    <g
       id="g9940"
       transform="translate(337.73664,27.846739)" />
    <g
       id="g9942"
       transform="matrix(1,0,0,0.9828442,337.84374,24.18302)" />
    <g
       id="g9944"
       transform="matrix(1,0,0,1.016975,337.97671,30.964235)" />
    <g
       id="g9946"
       transform="matrix(-1,0,0,1,547.66692,27.525433)" />
    <g
       transform="matrix(-0.9695698,0,0,1,543.81879,27.846739)"
       id="g9952" />
    <rect
       y="-114.89516"
       x="446.49319"
       height="49.649883"
       width="52.84166"
       id="brick_5"
       style="fill:none;fill-opacity:1;stroke:none"
       inkscape:label="#rect9954" />
    <g
       transform="translate(195.89945,98.707324)"
       id="brick_6"
       inkscape:label="#g9662">
      <g
         transform="matrix(0.7826519,0,0,1,268.5246,-0.3213057)"
         id="g9737" />
      <g
         transform="matrix(-0.7614472,0,0,1,418.51569,-0.3213057)"
         id="g9741" />
      <g
         id="g9743"
         transform="translate(240,24.684429)">
        <path
           id="path9745"
           d="M 111.03581,-201.05624 L 131.23924,-201.05624 L 131.23924,-188.17153 L 111.03581,-188.17153 L 111.03581,-201.05624 z "
           style="fill:#280b0b;fill-opacity:1;stroke:none" />
        <path
           id="path9747"
           d="M 112.15185,-200.50974 L 131.23924,-200.50974 L 131.23924,-188.71803 L 112.15185,-188.71803 L 112.15185,-200.50974 z "
           style="fill:#aa0000;fill-opacity:1;stroke:none" />
      </g>
      <g
         id="g9749"
         transform="translate(239.8929,25.005735)">
        <path
           id="path9751"
           d="M 124.33303,-213.55562 L 131.37221,-213.55562 L 131.37221,-201.33577 L 124.33303,-201.33577 L 124.33303,-213.55562 z "
           style="fill:#280b0b;fill-opacity:1;stroke:none" />
        <path
           id="path9753"
           d="M 124.89104,-212.6102 L 131.34606,-212.6102 L 131.34606,-201.88227 L 124.89104,-201.88227 L 124.89104,-212.6102 z "
           style="fill:#aa0000;fill-opacity:1;stroke:none" />
      </g>
      <g
         id="g9755"
         transform="matrix(1,0,0,0.9828442,240,21.342016)" />
      <g
         id="g9757"
         transform="matrix(1,0,0,1.016975,240.13297,28.123231)">
        <path
           id="path9759"
           d="M 98.137515,-201.05624 L 111.16044,-201.05624 L 111.16044,-188.43747 L 98.137515,-188.43747 L 98.137515,-201.05624 z "
           style="fill:#280b0b;fill-opacity:1;stroke:none" />
        <path
           style="fill:#aa0000;fill-opacity:1;stroke:none"
           d="M 98.875624,-200.57622 L 110.53593,-200.57622 L 110.53593,-188.91749 L 98.875624,-188.91749 L 98.875624,-200.57622 z "
           id="path9761" />
      </g>
      <g
         id="g9763"
         transform="matrix(-1,0,0,1,449.82318,24.684429)">
        <path
           style="fill:#280b0b;fill-opacity:1;stroke:none"
           d="M 111.03581,-201.05624 L 131.23924,-201.05624 L 131.23924,-188.17153 L 111.03581,-188.17153 L 111.03581,-201.05624 z "
           id="path9765" />
        <path
           style="fill:#aa0000;fill-opacity:1;stroke:none"
           d="M 112.15185,-200.50974 L 131.23924,-200.50974 L 131.23924,-188.71803 L 112.15185,-188.71803 L 112.15185,-200.50974 z "
           id="path9767" />
      </g>
      <g
         transform="matrix(-0.9695698,0,0,1,445.97505,25.005735)"
         id="g9769" />
      <rect
         y="-213.60248"
         x="318.37589"
         height="49.649883"
         width="52.84166"
         id="rect9773"
         style="fill:none;fill-opacity:1;stroke:none" />
    </g>
    <g
       transform="translate(263.83115,98.707324)"
       inkscape:label="#g9662"
       id="brick_7">
      <g
         id="g9958"
         transform="matrix(0.7826519,0,0,1,268.5246,-0.3213057)" />
      <g
         id="g9964"
         transform="matrix(-0.7614472,0,0,1,418.51569,-0.3213057)" />
      <g
         transform="translate(240,24.684429)"
         id="g9968">
        <path
           style="fill:#280b0b;fill-opacity:1;stroke:none"
           d="M 111.03581,-201.05624 L 131.23924,-201.05624 L 131.23924,-188.17153 L 111.03581,-188.17153 L 111.03581,-201.05624 z "
           id="path9970" />
        <path
           style="fill:#aa0000;fill-opacity:1;stroke:none"
           d="M 112.15185,-200.50974 L 131.23924,-200.50974 L 131.23924,-188.71803 L 112.15185,-188.71803 L 112.15185,-200.50974 z "
           id="path9972" />
      </g>
      <g
         transform="translate(239.8929,25.005735)"
         id="g9974">
        <path
           style="fill:#280b0b;fill-opacity:1;stroke:none"
           d="M 124.33303,-213.55562 L 131.37221,-213.55562 L 131.37221,-201.33577 L 124.33303,-201.33577 L 124.33303,-213.55562 z "
           id="path9976" />
        <path
           style="fill:#aa0000;fill-opacity:1;stroke:none"
           d="M 124.89104,-212.6102 L 131.34606,-212.6102 L 131.34606,-201.88227 L 124.89104,-201.88227 L 124.89104,-212.6102 z "
           id="path9978" />
      </g>
      <g
         transform="matrix(1,0,0,0.9828442,240,21.342016)"
         id="g9980" />
      <g
         transform="matrix(1,0,0,1.016975,240.13297,28.123231)"
         id="g9984">
        <path
           style="fill:#280b0b;fill-opacity:1;stroke:none"
           d="M 98.137515,-201.05624 L 111.16044,-201.05624 L 111.16044,-188.43747 L 98.137515,-188.43747 L 98.137515,-201.05624 z "
           id="path9986" />
        <path
           id="path9988"
           d="M 98.875624,-200.57622 L 110.53593,-200.57622 L 110.53593,-188.91749 L 98.875624,-188.91749 L 98.875624,-200.57622 z "
           style="fill:#aa0000;fill-opacity:1;stroke:none" />
      </g>
      <g
         transform="matrix(-1,0,0,1,449.82318,24.684429)"
         id="g9990">
        <path
           id="path9992"
           d="M 111.03581,-201.05624 L 131.23924,-201.05624 L 131.23924,-188.17153 L 111.03581,-188.17153 L 111.03581,-201.05624 z "
           style="fill:#280b0b;fill-opacity:1;stroke:none" />
        <path
           id="path9994"
           d="M 112.15185,-200.50974 L 131.23924,-200.50974 L 131.23924,-188.71803 L 112.15185,-188.71803 L 112.15185,-200.50974 z "
           style="fill:#aa0000;fill-opacity:1;stroke:none" />
      </g>
      <g
         id="g9996"
         transform="matrix(-0.9695698,0,0,1,445.97505,25.005735)">
        <path
           id="path9998"
           d="M 124.33303,-213.55562 L 131.37221,-213.55562 L 131.37221,-201.33577 L 124.33303,-201.33577 L 124.33303,-213.55562 z "
           style="fill:#280b0b;fill-opacity:1;stroke:none" />
        <path
           id="path10000"
           d="M 124.89104,-212.6102 L 131.34606,-212.6102 L 131.34606,-201.88227 L 124.89104,-201.88227 L 124.89104,-212.6102 z "
           style="fill:#aa0000;fill-opacity:1;stroke:none" />
      </g>
      <rect
         style="fill:none;fill-opacity:1;stroke:none"
         id="rect10002"
         width="52.84166"
         height="49.649883"
         x="318.37589"
         y="-213.60248" />
    </g>
    <g
       id="g10006"
       transform="matrix(0.7826519,0,0,1,234.38799,2.4962697)" />
    <g
       id="g10012"
       transform="translate(205.75629,2.8175754)" />
    <g
       id="g10014"
       transform="matrix(1,0,0,0.9828442,205.86339,-0.8461432)" />
    <g
       id="g10016"
       transform="matrix(1.6990489,0,0,1.016975,132.57386,5.9350717)" />
    <g
       id="g10018"
       transform="matrix(-0.7614472,0,0,1,384.37908,2.4962697)" />
    <g
       transform="matrix(-0.9695698,0,0,1,411.83844,2.8175754)"
       id="g10024" />
    <g
       transform="matrix(1,0,0,0.9828442,205.86339,24.159591)"
       id="g10040" />
    <g
       id="brick_3"
       inkscape:label="#g10154"
       transform="translate(30.273575,95.86632)">
      <g
         id="g10028"
         transform="translate(205.86339,27.502004)">
        <path
           id="path10030"
           d="M 111.03581,-201.05624 L 131.23924,-201.05624 L 131.23924,-188.17153 L 111.03581,-188.17153 L 111.03581,-201.05624 z "
           style="fill:#280b0b;fill-opacity:1;stroke:none" />
        <path
           id="path10032"
           d="M 112.15185,-200.50974 L 131.23924,-200.50974 L 131.23924,-188.71803 L 112.15185,-188.71803 L 112.15185,-200.50974 z "
           style="fill:#aa0000;fill-opacity:1;stroke:none" />
      </g>
      <g
         id="g10034"
         transform="translate(205.75629,27.82331)">
        <path
           id="path10036"
           d="M 124.33303,-213.55562 L 131.37221,-213.55562 L 131.37221,-201.33577 L 124.33303,-201.33577 L 124.33303,-213.55562 z "
           style="fill:#280b0b;fill-opacity:1;stroke:none" />
        <path
           id="path10038"
           d="M 124.89104,-212.6102 L 131.34606,-212.6102 L 131.34606,-201.88227 L 124.89104,-201.88227 L 124.89104,-212.6102 z "
           style="fill:#aa0000;fill-opacity:1;stroke:none" />
      </g>
      <g
         id="g10046"
         transform="matrix(1,0,0,1.016975,205.99636,30.940806)">
        <path
           id="path10048"
           d="M 98.137515,-201.05624 L 111.16044,-201.05624 L 111.16044,-188.43747 L 98.137515,-188.43747 L 98.137515,-201.05624 z "
           style="fill:#280b0b;fill-opacity:1;stroke:none" />
        <path
           style="fill:#aa0000;fill-opacity:1;stroke:none"
           d="M 98.875624,-200.57622 L 110.53593,-200.57622 L 110.53593,-188.91749 L 98.875624,-188.91749 L 98.875624,-200.57622 z "
           id="path10050" />
      </g>
      <g
         id="g10052"
         transform="matrix(-1,0,0,1,415.68657,27.502004)">
        <path
           style="fill:#280b0b;fill-opacity:1;stroke:none"
           d="M 111.03581,-201.05624 L 131.23924,-201.05624 L 131.23924,-188.17153 L 111.03581,-188.17153 L 111.03581,-201.05624 z "
           id="path10054" />
        <path
           style="fill:#aa0000;fill-opacity:1;stroke:none"
           d="M 112.15185,-200.50974 L 131.23924,-200.50974 L 131.23924,-188.71803 L 112.15185,-188.71803 L 112.15185,-200.50974 z "
           id="path10056" />
      </g>
      <g
         transform="matrix(-0.9695698,0,0,1,411.83844,27.82331)"
         id="g10058">
        <path
           style="fill:#280b0b;fill-opacity:1;stroke:none"
           d="M 124.33303,-213.55562 L 131.37221,-213.55562 L 131.37221,-201.33577 L 124.33303,-201.33577 L 124.33303,-213.55562 z "
           id="path10060" />
        <path
           style="fill:#aa0000;fill-opacity:1;stroke:none"
           d="M 124.89104,-212.6102 L 131.34606,-212.6102 L 131.34606,-201.88227 L 124.89104,-201.88227 L 124.89104,-212.6102 z "
           id="path10062" />
      </g>
      <rect
         y="-210.76147"
         x="284.21964"
         height="49.649883"
         width="52.84166"
         id="rect10123"
         style="fill:none;fill-opacity:1;stroke:none" />
    </g>
    <g
       id="brick_2"
       inkscape:label="#g10127"
       transform="translate(30.273575,95.86632)">
      <g
         id="g8541"
         transform="matrix(0.7826519,0,0,1,164.38799,2.4962697)">
        <path
           id="path8543"
           d="M 111.03581,-201.05624 L 131.23924,-201.05624 L 131.23924,-188.17153 L 111.03581,-188.17153 L 111.03581,-201.05624 z "
           style="fill:#280b0b;fill-opacity:1;stroke:none" />
        <path
           id="path8545"
           d="M 112.15185,-200.50974 L 131.23924,-200.50974 L 131.23924,-188.71803 L 112.15185,-188.71803 L 112.15185,-200.50974 z "
           style="fill:#aa0000;fill-opacity:1;stroke:none" />
      </g>
      <g
         id="g8557"
         transform="matrix(-0.7614472,0,0,1,314.37908,2.4962697)">
        <path
           style="fill:#280b0b;fill-opacity:1;stroke:none"
           d="M 111.03581,-201.05624 L 131.23924,-201.05624 L 131.23924,-188.17153 L 111.03581,-188.17153 L 111.03581,-201.05624 z "
           id="path8559" />
        <path
           style="fill:#aa0000;fill-opacity:1;stroke:none"
           d="M 112.15185,-200.50974 L 131.23924,-200.50974 L 131.23924,-188.71803 L 112.15185,-188.71803 L 112.15185,-200.50974 z "
           id="path8561" />
      </g>
      <g
         transform="translate(135.86339,27.502004)"
         id="g8569">
        <path
           style="fill:#280b0b;fill-opacity:1;stroke:none"
           d="M 111.03581,-201.05624 L 131.23924,-201.05624 L 131.23924,-188.17153 L 111.03581,-188.17153 L 111.03581,-201.05624 z "
           id="path8571" />
        <path
           style="fill:#aa0000;fill-opacity:1;stroke:none"
           d="M 112.15185,-200.50974 L 131.23924,-200.50974 L 131.23924,-188.71803 L 112.15185,-188.71803 L 112.15185,-200.50974 z "
           id="path8573" />
      </g>
      <g
         transform="translate(135.75629,27.82331)"
         id="g8575">
        <path
           style="fill:#280b0b;fill-opacity:1;stroke:none"
           d="M 124.33303,-213.55562 L 131.37221,-213.55562 L 131.37221,-201.33577 L 124.33303,-201.33577 L 124.33303,-213.55562 z "
           id="path8577" />
        <path
           style="fill:#aa0000;fill-opacity:1;stroke:none"
           d="M 124.89104,-212.6102 L 131.34606,-212.6102 L 131.34606,-201.88227 L 124.89104,-201.88227 L 124.89104,-212.6102 z "
           id="path8579" />
      </g>
      <g
         transform="matrix(1,0,0,0.9828442,135.86339,24.159591)"
         id="g8581">
        <path
           style="fill:#280b0b;fill-opacity:1;stroke:none"
           d="M 85.106255,-213.55562 L 124.59063,-213.55562 L 124.59063,-201.06983 L 85.106255,-201.06983 L 85.106255,-213.55562 z "
           id="path8583" />
        <path
           style="fill:#aa0000;fill-opacity:1;stroke:none"
           d="M 85.996706,-212.67669 L 123.70018,-212.67669 L 123.70018,-201.94876 L 85.996706,-201.94876 L 85.996706,-212.67669 z "
           id="path8585" />
      </g>
      <g
         transform="matrix(1,0,0,1.016975,135.99636,30.940806)"
         id="g8587">
        <path
           style="fill:#280b0b;fill-opacity:1;stroke:none"
           d="M 98.137515,-201.05624 L 111.16044,-201.05624 L 111.16044,-188.43747 L 98.137515,-188.43747 L 98.137515,-201.05624 z "
           id="path8589" />
        <path
           id="path8591"
           d="M 98.875624,-200.57622 L 110.53593,-200.57622 L 110.53593,-188.91749 L 98.875624,-188.91749 L 98.875624,-200.57622 z "
           style="fill:#aa0000;fill-opacity:1;stroke:none" />
      </g>
      <g
         transform="matrix(-1,0,0,1,345.68657,27.502004)"
         id="g8593">
        <path
           id="path8595"
           d="M 111.03581,-201.05624 L 131.23924,-201.05624 L 131.23924,-188.17153 L 111.03581,-188.17153 L 111.03581,-201.05624 z "
           style="fill:#280b0b;fill-opacity:1;stroke:none" />
        <path
           id="path8597"
           d="M 112.15185,-200.50974 L 131.23924,-200.50974 L 131.23924,-188.71803 L 112.15185,-188.71803 L 112.15185,-200.50974 z "
           style="fill:#aa0000;fill-opacity:1;stroke:none" />
      </g>
      <g
         id="g8599"
         transform="matrix(-0.9695698,0,0,1,341.83844,27.82331)">
        <path
           id="path8601"
           d="M 124.33303,-213.55562 L 131.37221,-213.55562 L 131.37221,-201.33577 L 124.33303,-201.33577 L 124.33303,-213.55562 z "
           style="fill:#280b0b;fill-opacity:1;stroke:none" />
        <path
           id="path8603"
           d="M 124.89104,-212.6102 L 131.34606,-212.6102 L 131.34606,-201.88227 L 124.89104,-201.88227 L 124.89104,-212.6102 z "
           style="fill:#aa0000;fill-opacity:1;stroke:none" />
      </g>
      <rect
         style="fill:none;fill-opacity:1;stroke:none"
         id="rect10125"
         width="52.84166"
         height="49.649883"
         x="214.21964"
         y="-210.76147" />
    </g>
    <g
       transform="translate(469.96121,9.0943637)"
       inkscape:label="#g8357"
       id="false_brick">
      <g
         id="g10174"
         transform="matrix(0.7826519,0,0,1,28.524602,-0.3213057)">
        <path
           id="path10176"
           d="M 111.03581,-201.05624 L 131.23924,-201.05624 L 131.23924,-188.17153 L 111.03581,-188.17153 L 111.03581,-201.05624 z "
           style="fill:#280b0b;fill-opacity:1;stroke:none" />
        <path
           id="path10178"
           d="M 112.15185,-200.50974 L 131.23924,-200.50974 L 131.23924,-188.71803 L 112.15185,-188.71803 L 112.15185,-200.50974 z "
           style="fill:#aa0000;fill-opacity:1;stroke:none" />
      </g>
      <g
         id="g10180"
         transform="translate(-0.1071019,0)">
        <path
           id="path10182"
           d="M 124.33303,-213.55562 L 131.37221,-213.55562 L 131.37221,-201.33577 L 124.33303,-201.33577 L 124.33303,-213.55562 z "
           style="fill:#280b0b;fill-opacity:1;stroke:none" />
      </g>
      <g
         id="g10186"
         transform="matrix(1,0,0,0.9828442,0,-3.6637186)">
        <path
           id="path10188"
           d="M 85.106255,-213.55562 L 124.59063,-213.55562 L 124.59063,-201.06983 L 85.106255,-201.06983 L 85.106255,-213.55562 z "
           style="fill:#280b0b;fill-opacity:1;stroke:none" />
        <path
           id="path10190"
           d="M 85.996706,-212.67669 L 123.70018,-212.67669 L 123.70018,-201.94876 L 85.996706,-201.94876 L 85.996706,-212.67669 z "
           style="fill:#aa0000;fill-opacity:1;stroke:none" />
      </g>
      <g
         id="g10192"
         transform="matrix(1.6990489,0,0,1.016975,-73.289529,3.1174963)">
        <path
           id="path10194"
           d="M 98.137515,-201.05624 L 111.16044,-201.05624 L 111.16044,-188.43747 L 98.137515,-188.43747 L 98.137515,-201.05624 z "
           style="fill:#280b0b;fill-opacity:1;stroke:none" />
        <path
           style="fill:#aa0000;fill-opacity:1;stroke:none"
           d="M 98.875624,-200.57622 L 110.53593,-200.57622 L 110.53593,-188.91749 L 98.875624,-188.91749 L 98.875624,-200.57622 z "
           id="path10196" />
      </g>
      <g
         id="g10198"
         transform="matrix(-0.7614472,0,0,1,178.51569,-0.3213057)">
        <path
           style="fill:#280b0b;fill-opacity:1;stroke:none"
           d="M 111.03581,-201.05624 L 131.23924,-201.05624 L 131.23924,-188.17153 L 111.03581,-188.17153 L 111.03581,-201.05624 z "
           id="path10200" />
        <path
           style="fill:#aa0000;fill-opacity:1;stroke:none"
           d="M 112.15185,-200.50974 L 131.23924,-200.50974 L 131.23924,-188.71803 L 112.15185,-188.71803 L 112.15185,-200.50974 z "
           id="path10202" />
      </g>
      <g
         transform="matrix(-0.9695698,0,0,1,205.97505,0)"
         id="g10204" />
      <g
         transform="translate(0,24.684429)"
         id="g10210">
        <path
           style="fill:#280b0b;fill-opacity:1;stroke:none"
           d="M 111.03581,-201.05624 L 131.23924,-201.05624 L 131.23924,-188.17153 L 111.03581,-188.17153 L 111.03581,-201.05624 z "
           id="path10212" />
        <path
           style="fill:#aa0000;fill-opacity:1;stroke:none"
           d="M 112.15185,-200.50974 L 131.23924,-200.50974 L 131.23924,-188.71803 L 112.15185,-188.71803 L 112.15185,-200.50974 z "
           id="path10214" />
      </g>
      <g
         transform="translate(-0.1071019,25.005735)"
         id="g10216">
        <path
           style="fill:#280b0b;fill-opacity:1;stroke:none"
           d="M 124.33303,-213.55562 L 131.37221,-213.55562 L 131.37221,-201.33577 L 124.33303,-201.33577 L 124.33303,-213.55562 z "
           id="path10218" />
        <path
           style="fill:#aa0000;fill-opacity:1;stroke:none"
           d="M 124.89104,-212.6102 L 131.34606,-212.6102 L 131.34606,-201.88227 L 124.89104,-201.88227 L 124.89104,-212.6102 z "
           id="path10220" />
      </g>
      <g
         transform="matrix(1,0,0,0.9828442,0,21.342016)"
         id="g10222" />
      <g
         transform="matrix(1,0,0,1.016975,0.1329721,28.123231)"
         id="g10228">
        <path
           style="fill:#280b0b;fill-opacity:1;stroke:none"
           d="M 98.137515,-201.05624 L 111.16044,-201.05624 L 111.16044,-188.43747 L 98.137515,-188.43747 L 98.137515,-201.05624 z "
           id="path10230" />
        <path
           id="path10232"
           d="M 98.875624,-200.57622 L 110.53593,-200.57622 L 110.53593,-188.91749 L 98.875624,-188.91749 L 98.875624,-200.57622 z "
           style="fill:#aa0000;fill-opacity:1;stroke:none" />
      </g>
      <g
         transform="matrix(-1,0,0,1,209.82318,24.684429)"
         id="g10234">
        <path
           id="path10236"
           d="M 111.03581,-201.05624 L 131.23924,-201.05624 L 131.23924,-188.17153 L 111.03581,-188.17153 L 111.03581,-201.05624 z "
           style="fill:#280b0b;fill-opacity:1;stroke:none" />
      </g>
      <g
         id="g10240"
         transform="matrix(-0.9695698,0,0,1,205.97505,25.005735)">
        <path
           id="path10242"
           d="M 124.33303,-213.55562 L 131.37221,-213.55562 L 131.37221,-201.33577 L 124.33303,-201.33577 L 124.33303,-213.55562 z "
           style="fill:#280b0b;fill-opacity:1;stroke:none" />
        <path
           id="path10244"
           d="M 124.89104,-212.6102 L 131.34606,-212.6102 L 131.34606,-201.88227 L 124.89104,-201.88227 L 124.89104,-212.6102 z "
           style="fill:#aa0000;fill-opacity:1;stroke:none" />
      </g>
    </g>
    <rect
       style="fill:url(#linearGradient3983);fill-opacity:1;display:inline"
       id="background2"
       width="292.43384"
       height="236.04646"
       x="-694.93176"
       y="-324.66495"
       inkscape:label="#rect18035" />
    <rect
       style="fill:url(#linearGradient3987);fill-opacity:1;display:inline"
       id="background3"
       width="292.43384"
       height="236.04646"
       x="-694.93176"
       y="-570.7381"
       inkscape:label="#rect18035" />
    <rect
       style="fill:url(#linearGradient3991);fill-opacity:1;display:inline"
       id="background1"
       width="292.43384"
       height="236.04646"
       x="-392.2901"
       y="-570.7381"
       inkscape:label="#rect18035" />
    <g
       id="gold"
       inkscape:label="#g7536">
      <rect
         y="-206.05194"
         x="467.73584"
         height="51.732761"
         width="51.732761"
         id="rect1393"
         style="color:#000000;fill:none;fill-opacity:1;fill-rule:evenodd;stroke:none;stroke-width:1.09899998;stroke-linecap:butt;stroke-linejoin:round;marker:none;marker-start:none;marker-mid:none;marker-end:none;stroke-miterlimit:4;stroke-dasharray:none;stroke-dashoffset:0;stroke-opacity:0.18823529;visibility:visible;display:inline;overflow:visible" />
      <g
         transform="translate(554.90604,-307.4838)"
         id="gold_e_lefthand"
         style="display:inline">
        <path
           sodipodi:open="true"
           transform="matrix(0.2361034,0,0,0.2361034,-265.29844,31.23225)"
           sodipodi:end="12.54692"
           sodipodi:start="6.2713595"
           d="M 895.99776,471.71607 A 32,32 0 1 1 895.99395,471.4721"
           sodipodi:ry="32"
           sodipodi:rx="32"
           sodipodi:cy="472.09448"
           sodipodi:cx="864"
           id="path12582"
           style="opacity:1;color:#000000;fill:url(#radialGradient10077);fill-opacity:1;fill-rule:evenodd;stroke:none;stroke-width:1.09899998;stroke-linecap:butt;stroke-linejoin:round;marker:none;marker-start:none;marker-mid:none;marker-end:none;stroke-miterlimit:4;stroke-dasharray:none;stroke-dashoffset:0;stroke-opacity:0.18823529;visibility:visible;display:inline;overflow:visible"
           sodipodi:type="arc" />
        <path
           sodipodi:open="true"
           inkscape:transform-center-x="2.9999999"
           inkscape:transform-center-y="61.999997"
           transform="matrix(1.0731707,0,0,0.9999991,4.634141,-105.87478)"
           sodipodi:end="6.2774957"
           sodipodi:start="0"
           d="M -56.499997,248.625 A 5.1249995,5.7499995 0 1 1 -56.50008,248.59228"
           sodipodi:ry="5.7499995"
           sodipodi:rx="5.1249995"
           sodipodi:cy="248.625"
           sodipodi:cx="-61.624996"
           id="path4056"
           style="opacity:1;fill:url(#radialGradient5200);fill-opacity:1;stroke:none;stroke-width:0;stroke-linecap:square;stroke-miterlimit:4;stroke-dasharray:none;stroke-opacity:1"
           sodipodi:type="arc" />
      </g>
    </g>
  </g>
</svg>
